<svg width="105pt" height="35pt" viewBox="0 0 105 35" xmlns="http://www.w3.org/2000/svg"><g id="fontsvg1735120298474" stroke-linecap="round" fill-rule="evenodd" fill="#ffffff"><path d="M 27.65 34.65 L 28.35 34.65 L 28.35 2.4 L 37.7 28.2 L 37.8 28.2 L 46.8 2.05 L 46.8 34.65 L 53.75 34.65 L 53.75 0 L 46.8 0 L 41 17.1 L 34.95 0 L 27.65 0 L 27.65 34.65 Z M 85.4 34.65 L 86.1 34.65 L 86.1 2.4 L 97.55 34.65 L 104.65 34.65 L 104.65 0 L 103.95 0 L 103.95 32.15 L 92.55 0 L 85.4 0 L 85.4 34.65 Z M 58.45 34.65 L 61.4 22.65 L 71.55 22.65 L 74.2 34.65 L 81.4 34.65 L 73.4 0 L 66.25 0 L 57.75 34.65 L 58.45 34.65 Z M 0.7 34.65 L 3.65 22.65 L 13.8 22.65 L 16.45 34.65 L 23.65 34.65 L 15.65 0 L 8.5 0 L 0 34.65 L 0.7 34.65 Z M 3.8 22 L 8.95 0.95 L 13.65 22 L 3.8 22 Z M 61.55 22 L 66.7 0.95 L 71.4 22 L 61.55 22 Z" vector-effect="non-scaling-stroke"/></g></svg>