<?xml version="1.0" encoding="UTF-8"?>
<svg xmlns="http://www.w3.org/2000/svg" xmlns:xlink="http://www.w3.org/1999/xlink" width="181px" height="35px" viewBox="0 0 181 35" version="1.1">
<g id="surface1">
<path style=" stroke:none;fill-rule:nonzero;fill:rgb(9.411765%,16.862746%,28.627452%);fill-opacity:1;" d="M 35.480469 0.363281 C 27.207031 0.363281 24.894531 5.644531 24.894531 12.828125 C 24.894531 21.101562 28.605469 27.007812 36.332031 27.007812 C 39.195312 27.007812 41.359375 26.65625 43.25 25.957031 L 43.25 24.289062 C 42.246094 24.675781 40.859375 25.257812 38.269531 25.257812 C 29.800781 25.257812 28.71875 17.53125 28.71875 12.519531 C 28.71875 8.515625 29.222656 1.875 35.445312 1.875 C 40.238281 1.875 41.78125 5.371094 42.289062 7.546875 L 43.25 7.546875 L 42.90625 1.445312 C 41.203125 0.984375 38.574219 0.363281 35.480469 0.363281 Z M 58.714844 0.363281 C 53.851562 0.363281 50.023438 2.265625 50.023438 6.925781 C 50.023438 9.414062 50.835938 10.808594 52.53125 12.125 C 56.125 14.890625 62.546875 16.171875 62.546875 20.359375 C 62.546875 23.042969 60.339844 25.257812 56.9375 25.257812 C 52.800781 25.257812 50.984375 22.847656 50.675781 20.792969 L 49.710938 20.792969 L 49.980469 26.269531 C 50.949219 26.425781 54 27.007812 56.628906 27.007812 C 61.921875 27.007812 66.175781 24.675781 66.175781 19.742188 C 66.175781 16.050781 64.128906 14.460938 61.078125 12.671875 C 57.714844 10.695312 53.113281 9.566406 53.113281 6.109375 C 53.113281 3.542969 55.390625 1.875 57.984375 1.875 C 62.117188 1.875 63.667969 4.285156 64.015625 6.34375 L 64.980469 6.34375 L 64.710938 1.023438 C 62.96875 0.671875 61.308594 0.363281 58.714844 0.363281 Z M 0.457031 0.753906 L 0.457031 1.523438 C 2.589844 1.523438 3.820312 1.796875 3.820312 4.714844 L 3.820312 17.648438 C 3.820312 23.125 5.0625 27.007812 13.0625 27.007812 C 21.101562 27.007812 21.878906 22.96875 21.878906 17.648438 L 21.878906 4.714844 C 21.878906 1.796875 23.113281 1.523438 25.238281 1.523438 L 25.238281 0.753906 L 16.3125 0.753906 L 16.3125 1.523438 C 18.394531 1.523438 19.671875 1.796875 19.671875 4.714844 L 19.671875 17.648438 C 19.671875 22.269531 18.785156 25.492188 13.214844 25.492188 C 8.195312 25.492188 7.265625 21.609375 7.265625 17.648438 L 7.265625 4.714844 C 7.265625 1.796875 8.539062 1.523438 10.625 1.523438 L 10.625 0.753906 Z M 104.066406 0.753906 L 104.066406 1.527344 C 106.15625 1.527344 107.429688 1.796875 107.429688 4.714844 L 107.429688 22.65625 C 107.429688 25.566406 106.15625 25.839844 104.066406 25.839844 L 104.066406 26.621094 L 113.113281 26.621094 C 119.179688 26.621094 126.335938 25.257812 126.335938 13.722656 C 126.335938 2.148438 119.527344 0.753906 113.113281 0.753906 Z M 113.113281 2.265625 C 120.453125 2.265625 122.507812 6.578125 122.507812 13.722656 C 122.507812 21.53125 119.757812 25.101562 113.113281 25.101562 C 111.179688 25.101562 110.875 24.679688 110.875 21.839844 L 110.875 5.53125 C 110.875 2.5 111.179688 2.265625 113.113281 2.265625 Z M 131.59375 3.261719 C 130.496094 3.261719 129.632812 4.121094 129.632812 5.230469 C 129.632812 6.335938 130.496094 7.199219 131.59375 7.199219 C 132.695312 7.199219 133.554688 6.335938 133.554688 5.230469 C 133.554688 4.121094 132.695312 3.261719 131.59375 3.261719 Z M 164.085938 7.542969 C 161.984375 7.542969 161.167969 9.933594 160.621094 11.242188 C 159.515625 10.652344 158.652344 10.378906 157.070312 10.378906 C 153.804688 10.378906 150.582031 11.347656 150.582031 15.800781 C 150.582031 18.742188 151.773438 19.777344 152.570312 20.433594 C 152.191406 20.851562 151.085938 22.160156 151.085938 23.441406 C 151.085938 24.894531 151.984375 25.546875 152.570312 25.890625 C 151.464844 26.445312 149.894531 27.378906 149.894531 29.519531 C 149.894531 32.628906 153.394531 33.90625 156.757812 33.90625 C 161.335938 33.90625 165.1875 31.699219 165.1875 27.761719 C 165.1875 23.925781 161.367188 23.855469 159.722656 23.855469 L 155.667969 23.855469 C 154.558594 23.855469 152.847656 23.855469 152.847656 22.46875 C 152.847656 21.710938 153.257812 21.191406 153.464844 20.917969 C 154.210938 21.261719 155.21875 21.4375 156.59375 21.4375 C 160.722656 21.4375 162.878906 19.464844 162.878906 15.976562 C 162.878906 13.554688 161.746094 12.277344 161.335938 11.828125 C 161.507812 11.277344 161.816406 10.273438 162.574219 10.273438 C 163.019531 10.273438 163.230469 10.757812 164.125 10.757812 C 165.148438 10.757812 165.734375 10.136719 165.734375 9.203125 C 165.734375 8.164062 165.050781 7.542969 164.085938 7.542969 Z M 74.003906 10.378906 C 71.628906 10.378906 68.296875 11.519531 68.296875 13.765625 C 68.296875 14.699219 69.011719 15.324219 69.945312 15.324219 C 70.527344 15.324219 71.558594 14.941406 71.558594 13.523438 C 71.558594 12.417969 71.835938 11.519531 73.96875 11.519531 C 76.855469 11.519531 76.890625 14.070312 76.890625 16.492188 L 76.890625 17.804688 C 74.277344 18.050781 67.8125 18.046875 67.8125 23.058594 C 67.8125 25.304688 69.566406 26.960938 71.9375 26.960938 C 74.277344 26.960938 75.757812 25.996094 76.816406 24.441406 L 76.890625 24.441406 C 76.890625 25.929688 77.476562 26.960938 79.472656 26.960938 C 80.707031 26.960938 81.566406 26.757812 81.976562 26.652344 L 81.976562 25.929688 C 81.671875 25.996094 81.359375 26.066406 81.050781 26.066406 C 79.984375 26.066406 79.574219 25.652344 79.574219 24.441406 L 79.574219 15.871094 C 79.574219 12.65625 78.710938 10.378906 74.003906 10.378906 Z M 88.03125 10.378906 L 82.734375 11.207031 L 82.734375 11.796875 C 83.730469 11.863281 85.347656 11.96875 85.347656 14.042969 L 85.347656 23.476562 C 85.347656 25.722656 84.175781 26.03125 82.734375 26.03125 L 82.734375 26.621094 L 90.644531 26.621094 L 90.644531 26.03125 C 89.195312 26.03125 88.03125 25.722656 88.03125 23.476562 L 88.03125 19.222656 C 88.03125 15.9375 90.507812 12.035156 92.53125 12.035156 C 94.808594 12.035156 94.835938 13.382812 94.835938 16.359375 L 94.835938 23.476562 C 94.835938 25.722656 93.667969 26.03125 92.226562 26.03125 L 92.226562 26.621094 L 100.136719 26.621094 L 100.136719 26.03125 C 98.691406 26.03125 97.523438 25.722656 97.523438 23.476562 L 97.523438 15.597656 C 97.523438 12.382812 97.179688 10.378906 93.53125 10.378906 C 90.125 10.378906 88.582031 13.660156 88.101562 14.941406 L 88.03125 14.941406 Z M 133.035156 10.378906 L 127.742188 11.207031 L 127.742188 11.796875 C 128.773438 11.863281 130.355469 11.96875 130.355469 14.042969 L 130.355469 23.476562 C 130.355469 25.722656 129.183594 26.03125 127.742188 26.03125 L 127.742188 26.621094 L 135.652344 26.621094 L 135.652344 26.03125 C 134.210938 26.03125 133.035156 25.722656 133.035156 23.476562 Z M 142.671875 10.378906 C 137.714844 10.378906 135.683594 13.171875 135.683594 18.222656 C 135.683594 24.023438 138.675781 26.960938 144.003906 26.960938 C 146.101562 26.960938 147.277344 26.652344 148.101562 26.339844 L 148.101562 25.234375 C 147.402344 25.582031 146.476562 25.6875 145.691406 25.6875 C 139.941406 25.6875 138.539062 19.777344 138.539062 16.875 L 148.546875 16.875 L 148.546875 16.113281 C 148.546875 12.105469 145.753906 10.378906 142.671875 10.378906 Z M 172.402344 10.378906 C 168.007812 10.378906 165.21875 13.488281 165.21875 18.671875 C 165.21875 23.855469 168.007812 26.960938 172.402344 26.960938 C 176.8125 26.960938 179.589844 23.855469 179.589844 18.671875 C 179.589844 13.488281 176.8125 10.378906 172.402344 10.378906 Z M 142.21875 11.519531 C 144.867188 11.519531 145.484375 13.902344 145.484375 15.734375 L 138.539062 15.734375 C 138.539062 14.453125 139.601562 11.519531 142.21875 11.519531 Z M 156.660156 11.519531 C 159.140625 11.519531 160.035156 13.59375 160.035156 16.179688 C 160.035156 18.015625 159.65625 20.296875 156.757812 20.296875 C 154.28125 20.296875 153.425781 18.152344 153.425781 15.527344 C 153.425781 13.523438 153.945312 11.519531 156.660156 11.519531 Z M 172.402344 11.519531 C 175.847656 11.519531 176.53125 15.800781 176.53125 18.671875 C 176.53125 21.539062 175.847656 25.824219 172.402344 25.824219 C 168.96875 25.824219 168.285156 21.539062 168.285156 18.671875 C 168.285156 15.800781 168.96875 11.519531 172.402344 11.519531 Z M 76.890625 18.945312 L 76.890625 20.984375 C 76.890625 23.335938 75.449219 25.511719 73.214844 25.511719 C 72.042969 25.511719 70.871094 24.304688 70.871094 22.511719 C 70.871094 19.292969 75.273438 18.984375 76.890625 18.945312 Z M 153.773438 26.308594 L 159.785156 26.308594 C 161.515625 26.308594 162.949219 26.894531 162.949219 28.65625 C 162.949219 31.144531 160.0625 32.769531 156.941406 32.769531 C 153.945312 32.769531 152.121094 31.007812 152.121094 28.96875 C 152.121094 27.414062 153.085938 26.824219 153.773438 26.308594 Z M 153.773438 26.308594 "/>
<path style=" stroke:none;fill-rule:nonzero;fill:rgb(77.64706%,57.254905%,7.843138%);fill-opacity:1;" d="M 0.460938 32.578125 L 0.460938 33.453125 L 148.957031 33.453125 C 148.640625 33.183594 148.363281 32.886719 148.125 32.578125 Z M 165.730469 32.578125 C 165.417969 32.890625 165.078125 33.179688 164.703125 33.453125 L 179.3125 33.453125 L 179.3125 32.578125 Z M 165.730469 32.578125 "/>
</g>
</svg>
