<svg xmlns="http://www.w3.org/2000/svg" width="181" height="35"><path d="M35.48.363c-8.273 0-10.585 5.282-10.585 12.465 0 8.274 3.71 14.18 11.437 14.18 2.863 0 5.027-.352 6.918-1.051v-1.668c-1.004.387-2.39.969-4.98.969-8.47 0-9.551-7.727-9.551-12.738 0-4.004.504-10.645 6.726-10.645 4.793 0 6.336 3.496 6.844 5.672h.961l-.344-6.102C41.203.985 38.574.363 35.48.363m23.235 0c-4.863 0-8.692 1.903-8.692 6.563 0 2.488.813 3.883 2.508 5.199 3.594 2.766 10.016 4.047 10.016 8.234 0 2.684-2.207 4.899-5.61 4.899-4.136 0-5.953-2.41-6.261-4.465h-.965l.27 5.477c.968.156 4.019.738 6.648.738 5.293 0 9.547-2.332 9.547-7.266 0-3.691-2.047-5.281-5.098-7.07-3.363-1.977-7.965-3.106-7.965-6.563 0-2.566 2.278-4.234 4.871-4.234 4.133 0 5.684 2.41 6.032 4.469h.964l-.27-5.32C62.97.671 61.31.363 58.716.363M.457.753v.77c2.133 0 3.363.274 3.363 3.192v12.933c0 5.477 1.243 9.36 9.243 9.36 8.039 0 8.816-4.04 8.816-9.36V4.715c0-2.918 1.234-3.192 3.36-3.192v-.77h-8.926v.77c2.082 0 3.359.274 3.359 3.192v12.933c0 4.622-.887 7.844-6.457 7.844-5.02 0-5.95-3.883-5.95-7.844V4.715c0-2.918 1.274-3.192 3.36-3.192v-.77Zm103.61 0v.774c2.09 0 3.363.27 3.363 3.188v17.941c0 2.91-1.274 3.184-3.364 3.184v.781h9.047c6.067 0 13.223-1.363 13.223-12.898 0-11.575-6.809-12.97-13.223-12.97Zm9.046 1.513c7.34 0 9.395 4.312 9.395 11.457 0 7.808-2.75 11.379-9.395 11.379-1.933 0-2.238-.422-2.238-3.262V5.53c0-3.031.305-3.265 2.238-3.265m18.48.996c-1.097 0-1.96.86-1.96 1.968 0 1.106.863 1.97 1.96 1.97 1.102 0 1.962-.864 1.962-1.97a1.94 1.94 0 0 0-1.961-1.968m32.493 4.281c-2.102 0-2.918 2.39-3.465 3.7-1.105-.59-1.969-.864-3.55-.864-3.266 0-6.489.969-6.489 5.422 0 2.941 1.191 3.976 1.988 4.633-.379.418-1.484 1.726-1.484 3.007 0 1.454.898 2.106 1.484 2.45-1.105.554-2.675 1.488-2.675 3.629 0 3.109 3.5 4.386 6.863 4.386 4.578 0 8.43-2.207 8.43-6.144 0-3.836-3.82-3.907-5.465-3.907h-4.055c-1.11 0-2.82 0-2.82-1.386 0-.758.41-1.278.617-1.551.746.344 1.754.52 3.129.52 4.129 0 6.285-1.973 6.285-5.461 0-2.422-1.133-3.7-1.543-4.149.172-.55.48-1.555 1.238-1.555.446 0 .656.485 1.551.485 1.023 0 1.61-.621 1.61-1.555 0-1.039-.684-1.66-1.65-1.66m-90.082 2.836c-2.375 0-5.707 1.14-5.707 3.387 0 .933.715 1.558 1.648 1.558.582 0 1.614-.383 1.614-1.8 0-1.106.277-2.004 2.41-2.004 2.886 0 2.922 2.55 2.922 4.972v1.313c-2.614.246-9.079.242-9.079 5.254 0 2.246 1.754 3.902 4.126 3.902 2.34 0 3.82-.965 4.878-2.52h.075c0 1.489.586 2.52 2.582 2.52a9.8 9.8 0 0 0 2.504-.309v-.722c-.305.066-.618.136-.926.136-1.067 0-1.477-.414-1.477-1.625v-8.57c0-3.215-.863-5.492-5.57-5.492m14.027 0-5.297.828v.59c.996.066 2.614.172 2.614 2.246v9.434c0 2.246-1.172 2.554-2.614 2.554v.59h7.91v-.59c-1.449 0-2.613-.308-2.613-2.554v-4.254c0-3.285 2.477-7.188 4.5-7.188 2.278 0 2.305 1.348 2.305 4.324v7.118c0 2.246-1.168 2.554-2.61 2.554v.59h7.91v-.59c-1.445 0-2.613-.308-2.613-2.554v-7.88c0-3.214-.343-5.218-3.992-5.218-3.406 0-4.949 3.281-5.43 4.562h-.07Zm45.004 0-5.293.828v.59c1.031.066 2.613.172 2.613 2.246v9.434c0 2.246-1.171 2.554-2.613 2.554v.59h7.91v-.59c-1.441 0-2.617-.308-2.617-2.554Zm9.637 0c-4.957 0-6.988 2.793-6.988 7.844 0 5.8 2.992 8.738 8.32 8.738 2.098 0 3.273-.309 4.098-.621v-1.106c-.7.348-1.625.453-2.41.453-5.75 0-7.153-5.91-7.153-8.812h10.008v-.762c0-4.008-2.793-5.734-5.875-5.734m29.73 0c-4.394 0-7.183 3.11-7.183 8.293s2.789 8.289 7.183 8.289c4.41 0 7.188-3.106 7.188-8.29s-2.778-8.292-7.188-8.292m-30.183 1.14c2.648 0 3.265 2.383 3.265 4.215h-6.945c0-1.28 1.063-4.214 3.68-4.214m14.441 0c2.48 0 3.375 2.075 3.375 4.66 0 1.837-.379 4.118-3.277 4.118-2.477 0-3.332-2.145-3.332-4.77 0-2.004.52-4.007 3.234-4.007m15.742 0c3.446 0 4.13 4.282 4.13 7.153 0 2.867-.684 7.152-4.13 7.152-3.433 0-4.117-4.285-4.117-7.152 0-2.871.684-7.152 4.117-7.152m-95.511 7.426v2.04c0 2.35-1.442 4.527-3.676 4.527-1.172 0-2.344-1.207-2.344-3 0-3.219 4.402-3.528 6.02-3.567m76.882 7.364h6.012c1.73 0 3.164.586 3.164 2.347 0 2.489-2.887 4.114-6.008 4.114-2.996 0-4.82-1.762-4.82-3.801 0-1.555.965-2.145 1.652-2.66m0 0" style="stroke:none;fill-rule:nonzero;fill:#182b49;fill-opacity:1"/><path d="M.46 32.578v.875h148.497a6 6 0 0 1-.832-.875Zm165.27 0a8.7 8.7 0 0 1-1.027.875h14.61v-.875Zm0 0" style="stroke:none;fill-rule:nonzero;fill:#c69214;fill-opacity:1"/></svg>