<?xml version="1.0" encoding="UTF-8"?>
<svg xmlns="http://www.w3.org/2000/svg" xmlns:xlink="http://www.w3.org/1999/xlink" width="158px" height="35px" viewBox="0 0 158 35" version="1.1">
<g id="surface1">
<path style=" stroke:none;fill-rule:nonzero;fill:rgb(54.901963%,8.235294%,8.235294%);fill-opacity:1;" d="M 85.722656 3.960938 C 86.984375 1.761719 89.519531 0.601562 91.976562 0.582031 C 94.21875 0.433594 96.757812 0.808594 98.332031 2.597656 C 97.527344 3.660156 96.765625 4.742188 95.96875 5.808594 C 95.078125 4.773438 94.34375 3.320312 92.902344 3.03125 C 91.484375 2.589844 89.703125 3.332031 89.335938 4.863281 C 88.738281 7.292969 89.097656 9.828125 89.007812 12.308594 L 93.613281 12.308594 L 93.613281 15.074219 L 89.003906 15.074219 C 89.003906 19.242188 89.003906 23.410156 89 27.578125 C 88.984375 28.757812 89.171875 29.929688 89.390625 31.085938 C 90.445312 31.574219 91.582031 31.828125 92.746094 31.851562 C 92.742188 32.140625 92.734375 32.71875 92.730469 33.011719 C 88.964844 32.761719 85.195312 32.6875 81.429688 33.007812 C 81.429688 32.761719 81.441406 32.277344 81.441406 32.035156 C 82.632812 31.820312 84.105469 31.265625 84.152344 29.820312 C 84.617188 24.921875 84.300781 19.988281 84.394531 15.074219 C 83.476562 15.074219 82.558594 15.074219 81.644531 15.070312 C 81.644531 14.652344 81.65625 14.234375 81.660156 13.820312 C 82.589844 13.382812 83.5 12.902344 84.394531 12.40625 C 84.394531 9.566406 84.226562 6.496094 85.722656 3.960938 Z M 153.617188 0.578125 C 151.183594 1.140625 148.714844 1.621094 146.210938 1.730469 C 146.183594 1.960938 146.136719 2.421875 146.117188 2.652344 C 147.046875 2.933594 148.566406 2.859375 148.632812 4.171875 C 149.003906 6.820312 148.742188 9.519531 148.816406 12.1875 C 145.230469 11.570312 141.21875 11.609375 138.171875 13.863281 C 134.828125 16.222656 133.683594 20.617188 134.019531 24.539062 C 134.207031 27.578125 135.714844 30.695312 138.453125 32.179688 C 141.707031 33.984375 145.875 33.613281 148.925781 31.535156 C 148.945312 32.144531 148.960938 32.761719 148.964844 33.375 C 151.328125 32.773438 153.742188 32.429688 156.167969 32.289062 L 156.167969 31.226562 C 152.726562 30.636719 153.679688 29.03125 153.4375 26.304688 C 153.445312 17.730469 153.3125 9.148438 153.617188 0.578125 Z M 144.695312 14.402344 C 146.148438 14.386719 147.625 14.855469 148.816406 15.671875 C 148.820312 20.285156 148.808594 24.898438 148.824219 29.515625 C 146.269531 30.695312 142.816406 30.609375 140.8125 28.425781 C 139.09375 26.578125 138.804688 23.871094 138.960938 21.453125 C 139.132812 19.253906 139.589844 16.742188 141.492188 15.378906 C 142.449219 14.71875 143.5625 14.414062 144.695312 14.402344 Z M 8.804688 3.394531 C 11.699219 3.214844 14.601562 3.40625 17.460938 3.8125 C 17.292969 5.867188 17.308594 7.933594 17.464844 9.988281 C 17.1875 9.988281 16.636719 9.992188 16.359375 9.992188 C 16.140625 8.710938 15.914062 7.148438 14.558594 6.578125 C 12.546875 5.726562 10.191406 5.644531 8.109375 6.25 C 5.378906 7.066406 4.933594 11.113281 6.964844 12.875 C 9.5 15.113281 12.605469 16.578125 15.203125 18.75 C 19.277344 22.015625 18.742188 29.617188 13.914062 31.902344 C 9.851562 33.796875 5.078125 33.320312 0.882812 32.128906 C 0.90625 30.09375 0.832031 28.0625 0.738281 26.03125 C 1.042969 26.023438 1.652344 26.015625 1.960938 26.007812 C 2.175781 27.285156 2.375 28.859375 3.664062 29.519531 C 5.960938 30.816406 8.925781 30.921875 11.316406 29.804688 C 14.296875 28.144531 13.75 23.347656 10.960938 21.734375 C 8.542969 19.859375 5.761719 18.472656 3.527344 16.347656 C 1.054688 14.03125 0.746094 9.96875 2.339844 7.070312 C 3.640625 4.761719 6.269531 3.609375 8.804688 3.394531 Z M 25.972656 7.746094 C 26.203125 7.753906 26.660156 7.78125 26.890625 7.792969 C 26.886719 9.335938 26.886719 10.875 26.886719 12.421875 L 33.910156 12.421875 L 33.910156 15.074219 L 26.886719 15.074219 C 26.914062 18.792969 26.828125 22.511719 26.929688 26.234375 C 27.023438 27.648438 27.0625 29.414062 28.375 30.28125 C 30.03125 31.269531 32.007812 30.652344 33.664062 30.003906 C 34.171875 31.257812 32.878906 31.960938 31.976562 32.484375 C 29.867188 33.515625 27.292969 33.625 25.109375 32.769531 C 23.246094 32.0625 22.34375 30.007812 22.246094 28.125 C 22.023438 23.777344 22.246094 19.425781 22.285156 15.078125 L 19.539062 15.078125 L 19.523438 14.207031 C 22.503906 13.074219 24.515625 10.484375 25.972656 7.746094 Z M 44.773438 11.71875 C 41.605469 11.6875 38.414062 13.269531 37.394531 16.472656 C 37.671875 16.632812 38.234375 16.945312 38.519531 17.105469 C 39.730469 14.941406 42.574219 13.832031 44.8125 15.082031 C 46.570312 15.882812 46.714844 18.046875 46.679688 19.742188 C 43.917969 20.632812 41.0625 21.339844 38.457031 22.648438 C 35.328125 24.3125 34.925781 29.027344 37.164062 31.582031 C 39.804688 34.019531 44.207031 33.625 46.8125 31.320312 C 47.609375 32.90625 49.488281 33.511719 51.125 33.046875 C 52.550781 32.769531 53.492188 31.570312 54.429688 30.554688 C 54.269531 30.367188 53.9375 29.992188 53.777344 29.800781 C 53.1875 29.953125 52.527344 30.421875 51.949219 29.964844 C 51.203125 29.449219 51.292969 28.410156 51.242188 27.605469 C 51.292969 24.175781 51.480469 20.734375 51.304688 17.292969 C 51.214844 15.519531 50.425781 13.699219 48.863281 12.765625 C 47.644531 12.082031 46.210938 11.734375 44.773438 11.71875 Z M 46.632812 22.421875 C 46.652344 24.734375 46.632812 27.050781 46.652344 29.363281 C 45.179688 30.023438 43.433594 30.636719 41.882812 29.875 C 39.988281 28.859375 40.066406 25.816406 41.632812 24.539062 C 43.136719 23.496094 44.925781 23.003906 46.632812 22.421875 Z M 46.632812 22.421875 "/>
<path style=" stroke:none;fill-rule:nonzero;fill:rgb(54.901963%,8.235294%,8.235294%);fill-opacity:1;" d="M 105.273438 11.804688 C 102.960938 11.832031 100.570312 12.410156 98.761719 13.929688 C 96.074219 16.121094 94.902344 19.753906 95.023438 23.15625 C 95.007812 26.074219 95.910156 29.183594 98.1875 31.121094 C 100.878906 33.484375 104.789062 33.71875 108.140625 33.015625 C 111.671875 32.230469 114.328125 29.113281 115.078125 25.617188 C 115.886719 21.992188 115.550781 17.773438 113.074219 14.84375 C 111.167969 12.597656 108.117188 11.746094 105.273438 11.804688 Z M 105.304688 14.28125 C 106.546875 14.304688 107.777344 14.820312 108.574219 15.820312 C 110.019531 17.597656 110.40625 20 110.511719 22.238281 C 110.527344 24.675781 110.222656 27.304688 108.695312 29.296875 C 107.199219 31.25 103.972656 31.464844 102.25 29.710938 C 100.929688 28.476562 100.433594 26.640625 100.136719 24.914062 C 99.824219 22.625 99.90625 20.238281 100.617188 18.03125 C 101.121094 16.554688 102.09375 15.054688 103.640625 14.554688 C 104.175781 14.363281 104.738281 14.269531 105.304688 14.28125 Z M 56.078125 13.210938 C 58.535156 13.171875 61.023438 12.917969 63.289062 11.894531 C 63.367188 12.484375 63.429688 13.070312 63.476562 13.667969 C 66.078125 11.953125 69.441406 11.28125 72.425781 12.34375 C 74.558594 13.066406 76.050781 15.171875 76.238281 17.402344 C 76.679688 21.644531 76.039062 25.945312 76.601562 30.179688 C 76.664062 31.511719 78.085938 31.8125 79.121094 32.03125 C 79.121094 32.277344 79.121094 32.773438 79.125 33.019531 C 75.640625 32.742188 68.660156 33.007812 68.660156 33.007812 L 68.648438 32.003906 C 68.648438 32.003906 71.167969 31.289062 71.328125 30.558594 C 71.902344 27.410156 71.765625 24.15625 71.734375 20.957031 C 71.621094 19.042969 71.667969 16.65625 69.855469 15.492188 C 67.910156 14.363281 65.527344 14.886719 63.539062 15.613281 C 63.554688 19.757812 63.539062 23.902344 63.539062 28.039062 C 63.597656 29.148438 63.515625 30.410156 64.230469 31.328125 C 64.835938 31.75 65.589844 31.824219 66.277344 32.019531 C 66.28125 32.265625 66.289062 32.769531 66.289062 33.019531 C 62.851562 32.796875 59.402344 32.648438 55.96875 33.015625 C 55.96875 32.769531 55.980469 32.277344 55.980469 32.035156 C 57.023438 31.789062 58.40625 31.460938 58.597656 30.183594 C 59.078125 27.132812 58.710938 24.011719 58.824219 20.933594 C 58.78125 19.175781 58.972656 17.398438 58.667969 15.660156 C 58.425781 14.480469 56.988281 14.542969 56.085938 14.308594 C 56.085938 14.035156 56.078125 13.488281 56.078125 13.210938 Z M 117.421875 13.117188 C 119.882812 13.085938 122.339844 12.746094 124.675781 11.957031 L 124.738281 13.777344 C 127.101562 11.863281 130.664062 11.375 133.179688 13.273438 L 130.558594 17.308594 C 129.328125 15.40625 126.847656 14.945312 124.882812 15.914062 C 124.882812 15.914062 124.871094 24.289062 124.898438 28.476562 C 125 29.410156 124.851562 30.621094 125.722656 31.230469 C 126.5625 31.726562 127.582031 31.703125 128.515625 31.851562 C 128.515625 32.140625 128.511719 32.722656 128.511719 33.011719 C 124.738281 32.753906 120.957031 32.699219 117.1875 33 L 117.1875 31.851562 C 118.40625 31.640625 119.667969 31.214844 119.855469 30.488281 C 120.375 28.6875 120.121094 26.78125 120.175781 24.925781 C 120.121094 21.972656 120.28125 19.019531 120.101562 16.074219 C 120.089844 14.640625 118.480469 14.511719 117.433594 14.304688 C 117.4375 13.898438 117.425781 13.480469 117.425781 13.117188 Z M 117.421875 13.117188 "/>
</g>
</svg>
