<svg xmlns="http://www.w3.org/2000/svg" width="158" height="35"><path d="M85.723 3.96C86.984 1.763 89.52.603 91.977.583c2.242-.148 4.78.227 6.355 2.016-.805 1.062-1.566 2.144-2.363 3.21-.89-1.035-1.625-2.488-3.067-2.777-1.418-.441-3.199.301-3.566 1.832-.598 2.43-.238 4.965-.328 7.446h4.605v2.765h-4.61q0 6.252-.003 12.504c-.016 1.18.172 2.352.39 3.508a8.4 8.4 0 0 0 3.356.766l-.016 1.16c-3.765-.25-7.535-.325-11.3-.004 0-.246.011-.73.011-.973 1.192-.215 2.664-.77 2.711-2.215.465-4.898.149-9.832.243-14.746q-1.378.001-2.75-.004c0-.418.011-.836.015-1.25.93-.437 1.84-.918 2.735-1.414 0-2.84-.168-5.91 1.328-8.445M153.617.579c-2.433.563-4.902 1.043-7.406 1.152-.027.23-.074.692-.094.922.93.282 2.45.207 2.516 1.52.37 2.648.11 5.348.183 8.015-3.586-.617-7.597-.578-10.644 1.676-3.344 2.36-4.488 6.754-4.152 10.676.187 3.04 1.695 6.156 4.433 7.64 3.254 1.805 7.422 1.434 10.473-.644.02.61.035 1.227.039 1.84 2.363-.602 4.777-.945 7.203-1.086v-1.062c-3.441-.59-2.488-2.196-2.73-4.922.007-8.575-.125-17.157.18-25.727m-8.922 13.824c1.453-.015 2.93.453 4.121 1.27.004 4.613-.007 9.226.008 13.844-2.554 1.18-6.008 1.093-8.012-1.09-1.718-1.848-2.007-4.555-1.851-6.973.172-2.2.629-4.71 2.531-6.074.957-.66 2.07-.965 3.203-.977M8.805 3.395c2.894-.18 5.797.011 8.656.418a39 39 0 0 0 .004 6.175c-.277 0-.828.004-1.106.004-.218-1.281-.445-2.844-1.8-3.414-2.012-.851-4.368-.933-6.45-.328-2.73.816-3.175 4.863-1.144 6.625 2.535 2.238 5.64 3.703 8.238 5.875 4.074 3.266 3.54 10.867-1.289 13.152-4.062 1.895-8.836 1.418-13.031.227.023-2.035-.051-4.066-.145-6.098.305-.008.914-.015 1.223-.023.215 1.277.414 2.851 1.703 3.512 2.297 1.296 5.262 1.402 7.652.285 2.98-1.66 2.434-6.457-.355-8.07-2.418-1.876-5.2-3.262-7.434-5.387C1.055 14.03.747 9.968 2.34 7.07c1.3-2.308 3.93-3.46 6.465-3.675m17.168 4.351c.23.008.687.035.918.047-.004 1.543-.004 3.082-.004 4.629h7.023v2.652h-7.023c.027 3.719-.059 7.438.043 11.16.093 1.414.133 3.18 1.445 4.047 1.656.989 3.633.371 5.29-.277.507 1.254-.786 1.957-1.688 2.48-2.11 1.032-4.684 1.141-6.868.286-1.863-.708-2.765-2.762-2.863-4.645-.223-4.348 0-8.7.04-13.047h-2.747l-.016-.871c2.98-1.133 4.993-3.723 6.45-6.46m18.8 3.973c-3.168-.031-6.359 1.55-7.378 4.754.277.16.84.472 1.125.632 1.21-2.164 4.054-3.273 6.292-2.023 1.758.8 1.903 2.965 1.868 4.66-2.762.89-5.617 1.598-8.223 2.906-3.129 1.665-3.531 6.38-1.293 8.934 2.64 2.438 7.043 2.043 9.648-.262.797 1.586 2.676 2.192 4.313 1.727 1.426-.277 2.367-1.477 3.305-2.492-.16-.188-.492-.563-.653-.754-.59.152-1.25.62-1.828.164-.746-.516-.656-1.555-.707-2.36.051-3.43.238-6.87.063-10.312-.09-1.773-.88-3.594-2.442-4.527-1.218-.684-2.652-1.032-4.09-1.047m1.86 10.703c.02 2.312 0 4.629.02 6.941-1.473.66-3.22 1.274-4.77.512-1.895-1.016-1.817-4.059-.25-5.336 1.504-1.043 3.293-1.535 5-2.117m0 0" style="stroke:none;fill-rule:nonzero;fill:#8c1515;fill-opacity:1"/><path d="M105.273 11.805c-2.312.027-4.703.605-6.511 2.125-2.688 2.191-3.86 5.824-3.739 9.226-.015 2.918.887 6.028 3.165 7.965 2.69 2.363 6.601 2.598 9.953 1.895 3.53-.786 6.187-3.903 6.937-7.399.809-3.625.473-7.844-2.004-10.773-1.906-2.246-4.957-3.098-7.8-3.04m.032 2.476c1.242.024 2.472.54 3.27 1.54 1.445 1.777 1.831 4.179 1.937 6.417.015 2.438-.29 5.067-1.817 7.059-1.496 1.953-4.722 2.168-6.445.414-1.32-1.234-1.816-3.07-2.113-4.797-.313-2.289-.23-4.676.48-6.883.504-1.476 1.477-2.976 3.024-3.476a4.7 4.7 0 0 1 1.664-.274m-49.227-1.07c2.457-.04 4.945-.293 7.211-1.316.078.59.14 1.175.188 1.773 2.601-1.715 5.964-2.387 8.949-1.324 2.133.722 3.625 2.828 3.812 5.058.442 4.243-.199 8.543.364 12.778.062 1.332 1.484 1.633 2.52 1.851 0 .246 0 .742.003.989-3.484-.278-10.465-.012-10.465-.012l-.012-1.004s2.52-.715 2.68-1.445c.574-3.149.438-6.403.406-9.602-.113-1.914-.066-4.3-1.879-5.465-1.945-1.129-4.328-.605-6.316.121.016 4.145 0 8.29 0 12.426.059 1.11-.023 2.371.691 3.29.606.421 1.36.495 2.047.69.004.247.012.75.012 1-3.437-.222-6.887-.37-10.32-.003 0-.246.011-.739.011-.98 1.043-.247 2.426-.575 2.618-1.852.48-3.051.113-6.172.226-9.25-.043-1.758.149-3.536-.156-5.274-.242-1.18-1.68-1.117-2.582-1.351 0-.274-.008-.82-.008-1.098m61.344-.094c2.46-.031 4.918-.37 7.254-1.16l.062 1.82c2.364-1.914 5.926-2.402 8.442-.504l-2.621 4.036c-1.23-1.903-3.711-2.364-5.676-1.395 0 0-.012 8.375.015 12.563.102.933-.046 2.144.825 2.753.84.497 1.859.473 2.793.622l-.004 1.16c-3.774-.258-7.555-.313-11.324-.012v-1.148c1.218-.211 2.48-.637 2.667-1.364.52-1.8.266-3.707.32-5.562-.054-2.953.106-5.906-.073-8.852-.012-1.433-1.622-1.562-2.668-1.77.004-.406-.008-.824-.008-1.187Zm0 0" style="stroke:none;fill-rule:nonzero;fill:#8c1515;fill-opacity:1"/></svg>