<?xml version="1.0" encoding="UTF-8"?>
<svg xmlns="http://www.w3.org/2000/svg" xmlns:xlink="http://www.w3.org/1999/xlink" width="241px" height="35px" viewBox="0 0 240 35" version="1.1">
<g id="surface1">
<path style=" stroke:none;fill-rule:nonzero;fill:rgb(96.470588%,35.686275%,40.000001%);fill-opacity:1;" d="M 18.554688 16.582031 C 18.554688 22.96875 14.191406 26.882812 7.523438 26.882812 L 0.738281 26.882812 L 0.738281 6.136719 L 7.523438 6.136719 C 14.191406 6.136719 18.554688 10.175781 18.554688 16.582031 Z M 7.523438 24.105469 C 12.429688 24.105469 15.054688 21.296875 15.054688 16.582031 C 15.054688 11.867188 12.425781 8.910156 7.523438 8.910156 L 4.136719 8.910156 L 4.136719 24.105469 Z M 7.523438 24.105469 "/>
<path style=" stroke:none;fill-rule:nonzero;fill:rgb(96.470588%,35.686275%,40.000001%);fill-opacity:1;" d="M 29.027344 27.144531 C 24.300781 27.144531 20.804688 23.804688 20.804688 18.644531 C 20.804688 13.480469 24.152344 10.175781 29.023438 10.175781 C 33.714844 10.175781 37.039062 13.429688 37.039062 18.261719 C 37.042969 18.8125 37.011719 19.363281 36.929688 19.910156 L 24.34375 19.910156 C 24.582031 22.628906 26.523438 24.269531 29.035156 24.269531 C 31.128906 24.269531 32.296875 23.25 32.925781 21.96875 L 36.601562 21.96875 C 35.664062 24.851562 33.0625 27.144531 29.027344 27.144531 Z M 24.363281 17.179688 L 33.476562 17.179688 C 33.421875 14.644531 31.417969 13.03125 28.875 13.03125 C 26.574219 13.03125 24.722656 14.601562 24.363281 17.179688 Z M 24.363281 17.179688 "/>
<path style=" stroke:none;fill-rule:nonzero;fill:rgb(96.470588%,35.686275%,40.000001%);fill-opacity:1;" d="M 47.472656 27.144531 C 42.75 27.144531 39.253906 23.804688 39.253906 18.644531 C 39.253906 13.480469 42.605469 10.175781 47.472656 10.175781 C 52.167969 10.175781 55.484375 13.429688 55.484375 18.261719 C 55.492188 18.8125 55.449219 19.367188 55.363281 19.910156 L 42.78125 19.910156 C 43.019531 22.628906 44.964844 24.269531 47.472656 24.269531 C 49.570312 24.269531 50.734375 23.25 51.359375 21.96875 L 55.039062 21.96875 C 54.109375 24.851562 51.511719 27.144531 47.472656 27.144531 Z M 42.8125 17.179688 L 51.929688 17.179688 C 51.871094 14.644531 49.867188 13.03125 47.324219 13.03125 C 45.019531 13.03125 43.171875 14.601562 42.8125 17.179688 Z M 42.8125 17.179688 "/>
<path style=" stroke:none;fill-rule:nonzero;fill:rgb(96.470588%,35.686275%,40.000001%);fill-opacity:1;" d="M 67.988281 10.175781 C 72.320312 10.175781 75.730469 13.515625 75.730469 18.582031 C 75.730469 23.644531 72.320312 27.144531 67.988281 27.144531 C 66.890625 27.15625 65.804688 26.921875 64.808594 26.460938 C 63.8125 26.003906 62.933594 25.332031 62.226562 24.492188 L 62.226562 34.699219 L 58.816406 34.699219 L 58.816406 10.433594 L 62.226562 10.433594 L 62.226562 12.851562 C 63.628906 11.113281 65.753906 10.125 67.988281 10.175781 Z M 67.238281 13.132812 C 64.699219 13.132812 62.246094 15.132812 62.246094 18.652344 C 62.246094 22.171875 64.699219 24.203125 67.238281 24.203125 C 69.777344 24.203125 72.261719 22.121094 72.261719 18.582031 C 72.261719 15.042969 69.808594 13.121094 67.238281 13.121094 Z M 67.238281 13.132812 "/>
<path style=" stroke:none;fill-rule:nonzero;fill:rgb(96.470588%,35.686275%,40.000001%);fill-opacity:1;" d="M 82.519531 6.136719 L 82.519531 24.132812 L 89.546875 24.132812 L 89.546875 26.882812 L 79.117188 26.882812 L 79.117188 6.136719 Z M 82.519531 6.136719 "/>
<path style=" stroke:none;fill-rule:nonzero;fill:rgb(96.470588%,35.686275%,40.000001%);fill-opacity:1;" d="M 99.476562 27.144531 C 94.75 27.144531 91.253906 23.804688 91.253906 18.644531 C 91.253906 13.480469 94.601562 10.175781 99.476562 10.175781 C 104.164062 10.175781 107.484375 13.429688 107.484375 18.261719 C 107.492188 18.824219 107.453125 19.382812 107.367188 19.9375 L 94.78125 19.9375 C 95.019531 22.652344 96.964844 24.292969 99.476562 24.292969 C 101.566406 24.292969 102.734375 23.277344 103.359375 21.992188 L 107.035156 21.992188 C 106.113281 24.851562 103.511719 27.144531 99.476562 27.144531 Z M 94.8125 17.179688 L 103.925781 17.179688 C 103.867188 14.644531 101.863281 13.03125 99.328125 13.03125 C 97.023438 13.03125 95.167969 14.601562 94.8125 17.179688 Z M 94.8125 17.179688 "/>
<path style=" stroke:none;fill-rule:nonzero;fill:rgb(96.470588%,35.686275%,40.000001%);fill-opacity:1;" d="M 117.476562 10.175781 C 118.570312 10.144531 119.652344 10.367188 120.644531 10.828125 C 121.636719 11.289062 122.507812 11.972656 123.183594 12.832031 L 123.183594 10.4375 L 126.625 10.4375 L 126.625 26.882812 L 123.183594 26.882812 L 123.183594 24.433594 C 121.800781 26.199219 119.667969 27.203125 117.421875 27.144531 C 113.148438 27.144531 109.707031 23.65625 109.707031 18.582031 C 109.707031 13.507812 113.152344 10.175781 117.476562 10.175781 Z M 118.191406 13.132812 C 115.652344 13.132812 113.203125 15.039062 113.203125 18.589844 C 113.203125 22.140625 115.652344 24.199219 118.191406 24.199219 C 120.730469 24.199219 123.183594 22.207031 123.183594 18.652344 C 123.183594 15.101562 120.761719 13.121094 118.191406 13.121094 Z M 118.191406 13.132812 "/>
<path style=" stroke:none;fill-rule:nonzero;fill:rgb(96.470588%,35.686275%,40.000001%);fill-opacity:1;" d="M 134.523438 26.882812 L 131.113281 26.882812 L 131.113281 10.4375 L 134.523438 10.4375 L 134.523438 12.832031 C 135.476562 11.1875 137.125 10.175781 139.457031 10.175781 L 139.457031 13.714844 L 138.570312 13.714844 C 136.058594 13.714844 134.507812 14.757812 134.507812 18.25 Z M 134.523438 26.882812 "/>
<path style=" stroke:none;fill-rule:nonzero;fill:rgb(96.470588%,35.686275%,40.000001%);fill-opacity:1;" d="M 154.28125 17.699219 C 154.28125 14.679688 152.640625 13.132812 150.15625 13.132812 C 147.675781 13.132812 146.003906 14.679688 146.003906 17.699219 L 146.003906 26.882812 L 142.597656 26.882812 L 142.597656 10.4375 L 146.003906 10.4375 L 146.003906 12.316406 C 147.242188 10.914062 149.035156 10.128906 150.90625 10.175781 C 154.761719 10.175781 157.664062 12.59375 157.664062 17.1875 L 157.664062 26.882812 L 154.28125 26.882812 Z M 154.28125 17.699219 "/>
<path style=" stroke:none;fill-rule:nonzero;fill:rgb(96.470588%,35.686275%,40.000001%);fill-opacity:1;" d="M 161.554688 6.078125 C 161.5625 5.207031 162.09375 4.421875 162.902344 4.089844 C 163.707031 3.757812 164.636719 3.945312 165.253906 4.5625 C 165.871094 5.179688 166.054688 6.109375 165.722656 6.917969 C 165.390625 7.722656 164.605469 8.253906 163.734375 8.253906 C 163.15625 8.261719 162.597656 8.035156 162.183594 7.625 C 161.777344 7.21875 161.546875 6.65625 161.554688 6.078125 Z M 161.996094 10.4375 L 165.40625 10.4375 L 165.40625 26.882812 L 161.996094 26.882812 Z M 161.996094 10.4375 "/>
<path style=" stroke:none;fill-rule:nonzero;fill:rgb(96.470588%,35.686275%,40.000001%);fill-opacity:1;" d="M 181.585938 17.699219 C 181.585938 14.679688 179.941406 13.132812 177.460938 13.132812 C 174.980469 13.132812 173.300781 14.679688 173.300781 17.699219 L 173.300781 26.882812 L 169.875 26.882812 L 169.875 10.4375 L 173.285156 10.4375 L 173.285156 12.316406 C 174.527344 10.910156 176.332031 10.128906 178.207031 10.175781 C 182.0625 10.175781 184.945312 12.585938 184.945312 17.179688 L 184.945312 26.882812 L 181.570312 26.882812 Z M 181.585938 17.699219 "/>
<path style=" stroke:none;fill-rule:nonzero;fill:rgb(96.470588%,35.686275%,40.000001%);fill-opacity:1;" d="M 195.9375 10.175781 C 198.632812 10.175781 200.632812 11.425781 201.648438 12.832031 L 201.648438 10.4375 L 205.085938 10.4375 L 205.085938 27.144531 C 205.085938 31.625 202.1875 35 197.046875 35 C 192.652344 35 189.394531 32.820312 188.972656 29.175781 L 192.351562 29.175781 C 192.859375 30.882812 194.683594 32.042969 197.046875 32.042969 C 199.675781 32.042969 201.648438 30.425781 201.648438 27.144531 L 201.648438 24.40625 C 200.28125 26.164062 198.167969 27.183594 195.9375 27.144531 C 191.605469 27.144531 188.164062 23.65625 188.164062 18.582031 C 188.164062 13.503906 191.589844 10.175781 195.9375 10.175781 Z M 196.65625 13.132812 C 194.113281 13.132812 191.664062 15.039062 191.664062 18.589844 C 191.664062 22.144531 194.113281 24.199219 196.65625 24.199219 C 199.199219 24.199219 201.648438 22.207031 201.648438 18.652344 C 201.648438 15.101562 199.226562 13.121094 196.65625 13.121094 Z M 196.65625 13.132812 "/>
<path style=" stroke:none;fill-rule:nonzero;fill:rgb(96.470588%,35.686275%,40.000001%);fill-opacity:1;" d="M 209.457031 27.089844 C 208.574219 27.101562 207.769531 26.578125 207.417969 25.765625 C 207.15625 25.164062 207.183594 24.472656 207.488281 23.890625 C 207.796875 23.3125 208.34375 22.902344 208.984375 22.769531 C 209.855469 22.597656 210.742188 22.957031 211.238281 23.695312 C 211.480469 24.050781 211.609375 24.476562 211.609375 24.910156 C 211.621094 25.789062 211.09375 26.585938 210.289062 26.921875 C 210.023438 27.03125 209.742188 27.089844 209.457031 27.089844 Z M 209.457031 27.089844 "/>
<path style=" stroke:none;fill-rule:nonzero;fill:rgb(96.470588%,35.686275%,40.000001%);fill-opacity:1;" d="M 227.816406 22.644531 L 219.113281 22.644531 L 217.617188 26.882812 L 214.074219 26.882812 L 221.515625 6.085938 L 225.46875 6.085938 L 232.90625 26.882812 L 229.324219 26.882812 Z M 223.5 10.222656 L 220.066406 19.867188 L 226.859375 19.867188 Z M 223.5 10.222656 "/>
<path style=" stroke:none;fill-rule:nonzero;fill:rgb(96.470588%,35.686275%,40.000001%);fill-opacity:1;" d="M 236.128906 6.136719 L 239.539062 6.136719 L 239.539062 26.882812 L 236.128906 26.882812 Z M 236.128906 6.136719 "/>
</g>
</svg>
