<svg xmlns="http://www.w3.org/2000/svg" width="241" height="35" viewBox="0 0 240 35"><path d="M18.555 16.582c0 6.387-4.364 10.3-11.032 10.3H.738V6.138h6.785c6.668 0 11.032 4.039 11.032 10.445M7.523 24.105c4.907 0 7.532-2.808 7.532-7.523S12.425 8.91 7.523 8.91H4.137v15.195ZM29.027 27.145c-4.726 0-8.222-3.34-8.222-8.5 0-5.165 3.347-8.47 8.218-8.47 4.692 0 8.016 3.255 8.016 8.087.004.55-.027 1.101-.11 1.648H24.345c.238 2.719 2.18 4.36 4.691 4.36 2.094 0 3.262-1.02 3.89-2.301h3.677c-.938 2.883-3.54 5.176-7.575 5.176m-4.664-9.965h9.114c-.055-2.535-2.059-4.149-4.602-4.149-2.3 0-4.152 1.57-4.512 4.149M47.473 27.145c-4.723 0-8.22-3.34-8.22-8.5 0-5.165 3.352-8.47 8.22-8.47 4.695 0 8.011 3.255 8.011 8.087a9.7 9.7 0 0 1-.12 1.648H42.78c.239 2.719 2.184 4.36 4.692 4.36 2.097 0 3.261-1.02 3.886-2.301h3.68c-.93 2.883-3.527 5.176-7.566 5.176m-4.66-9.965h9.117c-.059-2.535-2.063-4.149-4.606-4.149-2.304 0-4.152 1.57-4.511 4.149M67.988 10.176c4.332 0 7.742 3.34 7.742 8.406 0 5.063-3.41 8.563-7.742 8.563a7.4 7.4 0 0 1-3.18-.684 7.4 7.4 0 0 1-2.581-1.969V34.7h-3.41V10.434h3.41v2.418a7.19 7.19 0 0 1 5.761-2.676m-.75 2.957c-2.539 0-4.992 2-4.992 5.52s2.453 5.55 4.992 5.55 5.024-2.082 5.024-5.621-2.453-5.46-5.024-5.46ZM82.52 6.137v17.996h7.027v2.75h-10.43V6.137ZM99.477 27.145c-4.727 0-8.223-3.34-8.223-8.5 0-5.165 3.348-8.47 8.223-8.47 4.687 0 8.007 3.255 8.007 8.087q.013.843-.117 1.675H94.781c.239 2.715 2.184 4.356 4.696 4.356 2.09 0 3.257-1.016 3.882-2.3h3.676c-.922 2.859-3.523 5.152-7.558 5.152m-4.665-9.965h9.114c-.059-2.535-2.063-4.149-4.598-4.149-2.305 0-4.16 1.57-4.516 4.149M117.477 10.176a7 7 0 0 1 3.168.652 6.95 6.95 0 0 1 2.539 2.004v-2.395h3.441v16.446h-3.441v-2.45a7.08 7.08 0 0 1-5.762 2.712c-4.274 0-7.715-3.489-7.715-8.563s3.445-8.406 7.77-8.406m.714 2.957c-2.539 0-4.988 1.906-4.988 5.457 0 3.55 2.45 5.61 4.988 5.61 2.54 0 4.993-1.993 4.993-5.548 0-3.55-2.422-5.53-4.993-5.53ZM134.523 26.883h-3.41V10.438h3.41v2.394c.954-1.645 2.602-2.656 4.934-2.656v3.539h-.887c-2.511 0-4.062 1.043-4.062 4.535ZM154.281 17.7c0-3.02-1.64-4.567-4.125-4.567-2.48 0-4.152 1.547-4.152 4.566v9.184h-3.406V10.438h3.406v1.878a6.33 6.33 0 0 1 4.902-2.14c3.856 0 6.758 2.418 6.758 7.012v9.695h-3.383ZM161.555 6.078a2.17 2.17 0 0 1 1.347-1.988 2.163 2.163 0 1 1 .832 4.164 2.16 2.16 0 0 1-1.55-.629 2.16 2.16 0 0 1-.63-1.547m.441 4.36h3.41v16.445h-3.41ZM181.586 17.7c0-3.02-1.645-4.567-4.125-4.567s-4.16 1.547-4.16 4.566v9.184h-3.426V10.438h3.41v1.878a6.36 6.36 0 0 1 4.922-2.14c3.856 0 6.738 2.41 6.738 7.004v9.703h-3.375ZM195.938 10.176c2.695 0 4.695 1.25 5.71 2.656v-2.395h3.438v16.708c0 4.48-2.899 7.855-8.04 7.855-4.394 0-7.651-2.18-8.073-5.824h3.379c.507 1.707 2.332 2.867 4.695 2.867 2.629 0 4.601-1.617 4.601-4.898v-2.739a7.08 7.08 0 0 1-5.71 2.739c-4.333 0-7.774-3.489-7.774-8.563 0-5.078 3.426-8.406 7.774-8.406m.718 2.957c-2.543 0-4.992 1.906-4.992 5.457 0 3.555 2.45 5.61 4.992 5.61 2.543 0 4.992-1.993 4.992-5.548 0-3.55-2.421-5.53-4.992-5.53ZM209.457 27.09a2.19 2.19 0 0 1-2.039-1.324 2.18 2.18 0 0 1 .07-1.875 2.2 2.2 0 0 1 1.496-1.121 2.195 2.195 0 0 1 2.254.925c.242.356.371.782.371 1.215a2.15 2.15 0 0 1-2.152 2.18M227.816 22.645h-8.703l-1.496 4.238h-3.543l7.442-20.797h3.953l7.437 20.797h-3.582ZM223.5 10.223l-3.434 9.644h6.793ZM236.129 6.137h3.41v20.746h-3.41Zm0 0" style="stroke:none;fill-rule:nonzero;fill:#f65b66;fill-opacity:1"/></svg>