<?xml version="1.0" encoding="UTF-8"?>
<svg xmlns="http://www.w3.org/2000/svg" xmlns:xlink="http://www.w3.org/1999/xlink" width="195px" height="35px" viewBox="0 0 195 35" version="1.1">
<g id="surface1">
<path style=" stroke:none;fill-rule:nonzero;fill:rgb(9.019608%,81.568629%,34.901962%);fill-opacity:1;" d="M 99.679688 0.773438 C 101.144531 0.773438 102.613281 0.773438 104.125 0.773438 C 104.578125 1.800781 104.578125 1.800781 104.730469 2.226562 C 104.765625 2.320312 104.800781 2.414062 104.832031 2.511719 C 104.886719 2.652344 104.886719 2.652344 104.9375 2.796875 C 104.96875 2.890625 105.003906 2.984375 105.039062 3.078125 C 105.230469 3.609375 105.402344 4.140625 105.554688 4.683594 C 105.660156 5.011719 105.804688 5.324219 105.941406 5.644531 C 106.238281 6.515625 106.539062 7.382812 106.847656 8.28125 C 106.878906 5.804688 106.914062 3.324219 106.949219 0.773438 C 108.414062 0.773438 109.878906 0.773438 111.390625 0.773438 C 111.390625 6.796875 111.390625 12.824219 111.390625 19.035156 C 109.824219 19.035156 108.257812 19.035156 106.648438 19.035156 C 106.191406 18.007812 106.191406 18.007812 106.070312 17.585938 C 106.042969 17.492188 106.015625 17.402344 105.984375 17.304688 C 105.957031 17.210938 105.929688 17.109375 105.902344 17.011719 C 105.597656 15.984375 105.269531 14.972656 104.929688 13.960938 C 104.695312 13.257812 104.464844 12.558594 104.222656 11.832031 C 104.191406 14.207031 104.15625 16.585938 104.125 19.035156 C 102.65625 19.035156 101.1875 19.035156 99.679688 19.035156 C 99.679688 13.007812 99.679688 6.984375 99.679688 0.773438 Z M 99.679688 0.773438 "/>
<path style=" stroke:none;fill-rule:nonzero;fill:rgb(9.019608%,81.568629%,34.901962%);fill-opacity:1;" d="M 45.976562 0.773438 C 47.441406 0.773438 48.90625 0.773438 50.417969 0.773438 C 50.550781 1.140625 50.683594 1.511719 50.820312 1.890625 C 50.894531 2.0625 50.894531 2.0625 50.96875 2.234375 C 51.191406 2.761719 51.371094 3.300781 51.554688 3.84375 C 51.882812 4.808594 52.21875 5.769531 52.574219 6.726562 C 52.765625 7.242188 52.953125 7.761719 53.144531 8.28125 C 53.175781 5.804688 53.210938 3.324219 53.246094 0.773438 C 54.675781 0.773438 56.109375 0.773438 57.582031 0.773438 C 57.582031 6.796875 57.582031 12.824219 57.582031 19.035156 C 56.019531 19.035156 54.453125 19.035156 52.839844 19.035156 C 52.605469 18.386719 52.382812 17.761719 52.195312 17.101562 C 51.957031 16.257812 51.683594 15.429688 51.402344 14.601562 C 51.269531 14.203125 51.136719 13.800781 51.003906 13.40625 C 50.980469 13.332031 50.957031 13.261719 50.933594 13.1875 C 50.75 12.636719 50.585938 12.085938 50.417969 11.527344 C 50.382812 14.003906 50.351562 16.480469 50.316406 19.035156 C 48.882812 19.035156 47.453125 19.035156 45.976562 19.035156 C 45.976562 13.007812 45.976562 6.984375 45.976562 0.773438 Z M 45.976562 0.773438 "/>
<path style=" stroke:none;fill-rule:nonzero;fill:rgb(9.019608%,81.568629%,34.901962%);fill-opacity:1;" d="M 158.433594 0.773438 C 160.164062 0.773438 161.898438 0.773438 163.679688 0.773438 C 163.683594 1.433594 163.683594 1.433594 163.6875 2.101562 C 163.695312 3.550781 163.703125 5 163.710938 6.449219 C 163.714844 7.328125 163.722656 8.210938 163.726562 9.089844 C 163.730469 9.855469 163.730469 10.621094 163.738281 11.386719 C 163.738281 11.792969 163.742188 12.195312 163.742188 12.601562 C 163.746094 12.984375 163.746094 13.363281 163.75 13.746094 C 163.75 13.886719 163.753906 14.027344 163.753906 14.167969 C 163.75 15.148438 163.75 15.148438 163.984375 16.09375 C 164.296875 16.148438 164.578125 16.195312 164.894531 16.195312 C 165 15.410156 165.011719 14.636719 165.015625 13.847656 C 165.015625 13.703125 165.015625 13.558594 165.019531 13.414062 C 165.019531 13.03125 165.023438 12.644531 165.027344 12.261719 C 165.027344 11.851562 165.03125 11.449219 165.035156 11.046875 C 165.035156 10.28125 165.042969 9.519531 165.046875 8.753906 C 165.050781 7.882812 165.058594 7.015625 165.0625 6.140625 C 165.074219 4.355469 165.085938 2.5625 165.09375 0.773438 C 166.828125 0.773438 168.5625 0.773438 170.34375 0.773438 C 170.347656 2.691406 170.351562 4.605469 170.355469 6.523438 C 170.355469 7.410156 170.359375 8.296875 170.359375 9.1875 C 170.363281 9.964844 170.363281 10.738281 170.367188 11.515625 C 170.367188 11.925781 170.367188 12.335938 170.367188 12.746094 C 170.367188 13.132812 170.367188 13.519531 170.367188 13.90625 C 170.367188 14.046875 170.367188 14.1875 170.367188 14.332031 C 170.375 15.445312 170.277344 16.320312 169.742188 17.308594 C 169.671875 17.308594 169.605469 17.308594 169.539062 17.308594 C 169.515625 17.367188 169.492188 17.421875 169.46875 17.480469 C 168.960938 18.375 167.941406 18.894531 166.992188 19.175781 C 164.929688 19.730469 162.542969 19.582031 160.65625 18.566406 C 160.035156 18.199219 159.570312 17.785156 159.140625 17.210938 C 159.058594 17.105469 159.058594 17.105469 158.980469 17.003906 C 157.980469 15.585938 158.421875 13.019531 158.425781 11.378906 C 158.425781 11.003906 158.425781 10.628906 158.425781 10.257812 C 158.425781 9.550781 158.425781 8.84375 158.425781 8.140625 C 158.425781 7.335938 158.425781 6.53125 158.425781 5.726562 C 158.425781 4.078125 158.429688 2.425781 158.433594 0.773438 Z M 158.433594 0.773438 "/>
<path style=" stroke:none;fill-rule:nonzero;fill:rgb(9.019608%,81.568629%,34.901962%);fill-opacity:1;" d="M 0.953125 0.773438 C 2.683594 0.773438 4.417969 0.773438 6.203125 0.773438 C 6.234375 2.882812 6.269531 4.992188 6.300781 7.164062 C 6.433594 6.730469 6.570312 6.296875 6.707031 5.84375 C 6.863281 5.429688 6.863281 5.429688 6.933594 5.234375 C 7.125 4.71875 7.277344 4.175781 7.441406 3.648438 C 7.609375 3.109375 7.792969 2.585938 8.011719 2.066406 C 8.175781 1.644531 8.292969 1.207031 8.421875 0.773438 C 10.054688 0.773438 11.683594 0.773438 13.371094 0.773438 C 13.140625 1.800781 13.140625 1.800781 12.992188 2.195312 C 12.945312 2.324219 12.945312 2.324219 12.898438 2.457031 C 12.863281 2.550781 12.828125 2.636719 12.796875 2.734375 C 12.71875 2.929688 12.648438 3.128906 12.578125 3.324219 C 12.539062 3.425781 12.503906 3.523438 12.46875 3.625 C 12.304688 4.070312 12.148438 4.523438 11.992188 4.96875 C 11.78125 5.582031 11.566406 6.191406 11.335938 6.796875 C 11.300781 6.898438 11.300781 6.898438 11.265625 6.996094 C 11.144531 7.3125 11.023438 7.625 10.882812 7.9375 C 10.515625 8.800781 10.527344 9.335938 10.867188 10.207031 C 11.046875 10.675781 11.195312 11.152344 11.351562 11.628906 C 11.417969 11.839844 11.492188 12.050781 11.558594 12.261719 C 11.671875 12.601562 11.785156 12.941406 11.898438 13.277344 C 12.09375 13.863281 12.28125 14.445312 12.476562 15.027344 C 13.453125 17.925781 13.453125 17.925781 13.671875 19.035156 C 11.875 19.035156 10.074219 19.035156 8.222656 19.035156 C 7.894531 17.917969 7.578125 16.804688 7.296875 15.675781 C 6.996094 14.484375 6.648438 13.320312 6.300781 12.136719 C 6.269531 14.414062 6.238281 16.691406 6.203125 19.035156 C 4.46875 19.035156 2.734375 19.035156 0.953125 19.035156 C 0.953125 13.007812 0.953125 6.984375 0.953125 0.773438 Z M 0.953125 0.773438 "/>
<path style=" stroke:none;fill-rule:nonzero;fill:rgb(9.019608%,81.568629%,34.901962%);fill-opacity:1;" d="M 69.902344 1.484375 C 71.082031 2.390625 71.628906 3.296875 71.835938 4.769531 C 71.949219 5.699219 71.960938 6.636719 71.917969 7.570312 C 71.753906 7.738281 71.5625 7.683594 71.335938 7.6875 C 71.234375 7.6875 71.128906 7.6875 71.023438 7.6875 C 70.910156 7.6875 70.800781 7.6875 70.6875 7.6875 C 70.574219 7.6875 70.457031 7.6875 70.339844 7.6875 C 70.097656 7.6875 69.859375 7.6875 69.617188 7.6875 C 69.246094 7.683594 68.875 7.6875 68.503906 7.6875 C 68.269531 7.6875 68.035156 7.6875 67.804688 7.6875 C 67.691406 7.6875 67.578125 7.6875 67.464844 7.6875 C 67.3125 7.6875 67.3125 7.6875 67.152344 7.6875 C 67.0625 7.683594 66.96875 7.683594 66.878906 7.683594 C 66.667969 7.671875 66.667969 7.671875 66.570312 7.570312 C 66.554688 7.316406 66.546875 7.066406 66.539062 6.816406 C 66.539062 6.742188 66.535156 6.664062 66.535156 6.585938 C 66.527344 6.34375 66.523438 6.101562 66.519531 5.859375 C 66.511719 5.539062 66.503906 5.222656 66.496094 4.902344 C 66.496094 4.828125 66.496094 4.753906 66.492188 4.679688 C 66.484375 4.367188 66.46875 4.117188 66.367188 3.816406 C 66.066406 3.667969 65.789062 3.707031 65.460938 3.714844 C 65.191406 4.386719 65.113281 4.96875 65.117188 5.6875 C 65.117188 5.785156 65.117188 5.890625 65.117188 5.996094 C 65.113281 6.328125 65.117188 6.660156 65.117188 6.992188 C 65.117188 7.226562 65.117188 7.460938 65.117188 7.695312 C 65.117188 8.179688 65.117188 8.667969 65.121094 9.15625 C 65.125 9.777344 65.125 10.402344 65.121094 11.027344 C 65.121094 11.503906 65.125 11.988281 65.125 12.46875 C 65.125 12.699219 65.125 12.925781 65.125 13.15625 C 65.125 13.476562 65.125 13.800781 65.128906 14.125 C 65.128906 14.214844 65.128906 14.3125 65.128906 14.40625 C 65.132812 15 65.210938 15.519531 65.359375 16.09375 C 65.867188 16.1875 65.867188 16.1875 66.367188 16.09375 C 66.773438 15.324219 66.722656 14.386719 66.742188 13.542969 C 66.746094 13.40625 66.746094 13.269531 66.75 13.132812 C 66.757812 12.800781 66.765625 12.46875 66.773438 12.136719 C 66.699219 12.136719 66.628906 12.136719 66.554688 12.140625 C 66.460938 12.140625 66.367188 12.140625 66.273438 12.140625 C 66.179688 12.144531 66.089844 12.144531 65.992188 12.148438 C 65.761719 12.136719 65.761719 12.136719 65.660156 12.035156 C 65.652344 11.832031 65.648438 11.632812 65.648438 11.429688 C 65.648438 11.304688 65.648438 11.183594 65.648438 11.058594 C 65.648438 10.925781 65.648438 10.796875 65.648438 10.664062 C 65.648438 10.472656 65.648438 10.472656 65.648438 10.273438 C 65.648438 10.152344 65.648438 10.027344 65.648438 9.902344 C 65.648438 9.785156 65.648438 9.671875 65.648438 9.554688 C 65.660156 9.296875 65.660156 9.296875 65.761719 9.195312 C 65.949219 9.183594 66.140625 9.179688 66.328125 9.179688 C 66.445312 9.179688 66.570312 9.179688 66.691406 9.179688 C 66.828125 9.179688 66.957031 9.179688 67.09375 9.179688 C 67.230469 9.179688 67.363281 9.179688 67.5 9.179688 C 67.78125 9.179688 68.066406 9.179688 68.351562 9.179688 C 68.714844 9.179688 69.082031 9.179688 69.445312 9.179688 C 69.726562 9.179688 70.007812 9.179688 70.285156 9.179688 C 70.484375 9.179688 70.6875 9.179688 70.886719 9.179688 C 71.070312 9.179688 71.070312 9.179688 71.253906 9.179688 C 71.359375 9.179688 71.46875 9.179688 71.578125 9.179688 C 71.816406 9.195312 71.816406 9.195312 71.917969 9.296875 C 71.929688 9.597656 71.933594 9.898438 71.929688 10.203125 C 71.929688 10.296875 71.929688 10.390625 71.929688 10.488281 C 71.929688 10.804688 71.929688 11.117188 71.929688 11.4375 C 71.929688 11.65625 71.929688 11.871094 71.929688 12.089844 C 71.929688 12.667969 71.925781 13.242188 71.925781 13.816406 C 71.925781 14.402344 71.925781 14.992188 71.921875 15.578125 C 71.921875 16.730469 71.921875 17.882812 71.917969 19.035156 C 70.753906 19.035156 69.585938 19.035156 68.386719 19.035156 C 68.082031 18.121094 68.082031 18.121094 68.082031 17.917969 C 68.015625 17.917969 67.949219 17.917969 67.882812 17.917969 C 67.855469 17.980469 67.828125 18.039062 67.800781 18.101562 C 67.503906 18.648438 66.84375 19.128906 66.257812 19.300781 C 64.625 19.675781 63.140625 19.382812 61.722656 18.527344 C 60.753906 17.824219 60.214844 16.941406 59.90625 15.789062 C 59.761719 14.667969 59.789062 13.523438 59.792969 12.398438 C 59.792969 12.210938 59.792969 12.019531 59.792969 11.832031 C 59.792969 11.441406 59.792969 11.050781 59.792969 10.660156 C 59.792969 10.160156 59.792969 9.664062 59.792969 9.171875 C 59.792969 8.78125 59.792969 8.394531 59.792969 8.007812 C 59.792969 7.824219 59.792969 7.640625 59.792969 7.457031 C 59.785156 3.335938 59.785156 3.335938 60.816406 2.195312 C 63.160156 0.0429688 67.222656 -0.316406 69.902344 1.484375 Z M 69.902344 1.484375 "/>
<path style=" stroke:none;fill-rule:nonzero;fill:rgb(9.019608%,81.568629%,34.901962%);fill-opacity:1;" d="M 16.800781 0.773438 C 19.265625 0.773438 21.730469 0.773438 24.273438 0.773438 C 24.414062 1.269531 24.519531 1.707031 24.589844 2.210938 C 24.609375 2.351562 24.632812 2.488281 24.648438 2.628906 C 24.660156 2.699219 24.667969 2.773438 24.683594 2.847656 C 24.832031 3.894531 24.988281 4.9375 25.191406 5.976562 C 25.355469 6.800781 25.484375 7.628906 25.609375 8.460938 C 25.84375 10.085938 26.117188 11.707031 26.382812 13.328125 C 26.398438 13.40625 26.410156 13.484375 26.425781 13.5625 C 26.5625 14.386719 26.699219 15.214844 26.84375 16.035156 C 26.867188 16.171875 26.890625 16.304688 26.917969 16.4375 C 26.960938 16.6875 27.003906 16.933594 27.050781 17.183594 C 27.082031 17.347656 27.082031 17.347656 27.109375 17.515625 C 27.128906 17.613281 27.144531 17.707031 27.164062 17.804688 C 27.210938 18.214844 27.199219 18.625 27.199219 19.035156 C 25.433594 19.035156 23.667969 19.035156 21.847656 19.035156 C 21.621094 16.640625 21.621094 16.640625 21.644531 15.789062 C 21.078125 15.789062 20.515625 15.789062 19.929688 15.789062 C 19.917969 15.972656 19.902344 16.152344 19.890625 16.34375 C 19.871094 16.585938 19.851562 16.828125 19.835938 17.070312 C 19.820312 17.25 19.820312 17.25 19.808594 17.433594 C 19.800781 17.550781 19.792969 17.667969 19.785156 17.789062 C 19.773438 17.898438 19.765625 18.003906 19.757812 18.117188 C 19.730469 18.421875 19.679688 18.730469 19.628906 19.035156 C 17.832031 19.035156 16.03125 19.035156 14.175781 19.035156 C 14.175781 18.457031 14.195312 18.035156 14.296875 17.484375 C 14.460938 16.550781 14.59375 15.609375 14.71875 14.667969 C 14.886719 13.429688 15.0625 12.191406 15.246094 10.957031 C 15.257812 10.886719 15.269531 10.816406 15.28125 10.746094 C 15.421875 9.808594 15.574219 8.871094 15.734375 7.941406 C 15.773438 7.679688 15.808594 7.421875 15.835938 7.160156 C 15.90625 6.484375 16.019531 5.8125 16.125 5.140625 C 16.355469 3.6875 16.578125 2.230469 16.800781 0.773438 Z M 20.738281 5.746094 C 20.550781 6.339844 20.460938 6.929688 20.386719 7.550781 C 20.371094 7.65625 20.359375 7.757812 20.34375 7.867188 C 20.316406 8.085938 20.289062 8.304688 20.261719 8.527344 C 20.222656 8.863281 20.175781 9.195312 20.136719 9.53125 C 20.109375 9.746094 20.082031 9.960938 20.058594 10.175781 C 20.042969 10.273438 20.03125 10.375 20.015625 10.472656 C 19.9375 11.132812 19.921875 11.773438 19.929688 12.441406 C 20.429688 12.441406 20.929688 12.441406 21.445312 12.441406 C 21.335938 11.191406 21.214844 9.941406 21.085938 8.691406 C 20.984375 7.710938 20.886719 6.730469 20.839844 5.746094 C 20.804688 5.746094 20.769531 5.746094 20.738281 5.746094 Z M 20.738281 5.746094 "/>
<path style=" stroke:none;fill-rule:nonzero;fill:rgb(9.019608%,81.568629%,34.901962%);fill-opacity:1;" d="M 75.65625 0.773438 C 78.117188 0.773438 80.585938 0.773438 83.125 0.773438 C 83.585938 3.101562 83.585938 3.101562 83.695312 3.828125 C 83.710938 3.914062 83.722656 3.996094 83.738281 4.085938 C 83.765625 4.261719 83.792969 4.441406 83.820312 4.621094 C 83.894531 5.105469 83.96875 5.59375 84.046875 6.078125 C 84.0625 6.175781 84.078125 6.273438 84.097656 6.378906 C 84.253906 7.386719 84.421875 8.390625 84.589844 9.394531 C 84.871094 11.085938 85.140625 12.777344 85.40625 14.46875 C 85.542969 15.359375 85.6875 16.25 85.851562 17.136719 C 85.964844 17.773438 86.054688 18.386719 86.054688 19.035156 C 84.289062 19.035156 82.523438 19.035156 80.703125 19.035156 C 80.476562 16.640625 80.476562 16.640625 80.5 15.789062 C 79.933594 15.820312 79.367188 15.855469 78.785156 15.890625 C 78.683594 16.925781 78.582031 17.964844 78.480469 19.035156 C 76.648438 19.035156 74.816406 19.035156 72.929688 19.035156 C 73.242188 16.832031 73.242188 16.832031 73.425781 15.75 C 73.523438 15.167969 73.601562 14.585938 73.675781 14 C 73.839844 12.703125 74.035156 11.414062 74.234375 10.121094 C 74.417969 8.925781 74.59375 7.734375 74.742188 6.535156 C 74.816406 5.964844 74.902344 5.398438 74.996094 4.832031 C 75.136719 4.023438 75.246094 3.210938 75.34375 2.390625 C 75.355469 2.300781 75.367188 2.207031 75.375 2.113281 C 75.394531 1.988281 75.394531 1.988281 75.40625 1.863281 C 75.46875 1.492188 75.5625 1.132812 75.65625 0.773438 Z M 79.492188 5.339844 C 79.589844 5.644531 79.589844 5.644531 79.589844 5.644531 Z M 79.492188 5.84375 C 78.933594 9.128906 78.933594 9.128906 78.683594 12.441406 C 79.214844 12.441406 79.75 12.441406 80.296875 12.441406 C 80.25 12.078125 80.25 12.078125 80.203125 11.710938 C 80.128906 11.101562 80.066406 10.492188 80.023438 9.878906 C 79.921875 8.527344 79.804688 7.179688 79.589844 5.84375 C 79.558594 5.84375 79.527344 5.84375 79.492188 5.84375 Z M 79.492188 5.84375 "/>
<path style=" stroke:none;fill-rule:nonzero;fill:rgb(9.019608%,81.568629%,34.901962%);fill-opacity:1;" d="M 118.839844 0.4375 C 118.96875 0.4375 119.097656 0.433594 119.226562 0.433594 C 120.851562 0.429688 122.339844 0.746094 123.605469 1.789062 C 123.679688 1.839844 123.753906 1.886719 123.828125 1.941406 C 123.890625 1.988281 123.949219 2.039062 124.011719 2.089844 C 124.011719 2.195312 124.011719 2.292969 124.011719 2.394531 C 124.074219 2.394531 124.144531 2.394531 124.210938 2.394531 C 124.257812 2.554688 124.308594 2.71875 124.355469 2.878906 C 124.382812 2.964844 124.410156 3.058594 124.4375 3.152344 C 124.464844 3.238281 124.488281 3.320312 124.515625 3.410156 C 124.53125 3.472656 124.550781 3.53125 124.570312 3.59375 C 124.628906 3.875 124.625 4.140625 124.625 4.433594 C 124.625 4.539062 124.625 4.644531 124.625 4.753906 C 124.625 4.886719 124.621094 5.023438 124.621094 5.160156 C 124.617188 5.589844 124.617188 6.015625 124.613281 6.453125 C 123.015625 6.453125 121.417969 6.453125 119.769531 6.453125 C 119.726562 5.257812 119.726562 5.257812 119.710938 4.882812 C 119.710938 4.78125 119.707031 4.683594 119.699219 4.582031 C 119.695312 4.480469 119.691406 4.382812 119.6875 4.28125 C 119.679688 4.007812 119.679688 4.007812 119.566406 3.714844 C 119.417969 3.710938 119.273438 3.710938 119.125 3.707031 C 119.003906 3.707031 119.003906 3.707031 118.875 3.703125 C 118.652344 3.703125 118.652344 3.703125 118.457031 3.816406 C 118.238281 4.234375 118.222656 4.609375 118.222656 5.078125 C 118.222656 5.210938 118.21875 5.339844 118.21875 5.472656 C 118.269531 5.972656 118.394531 6.304688 118.761719 6.644531 C 119.34375 7.035156 119.9375 7.371094 120.554688 7.695312 C 121.515625 8.21875 122.414062 8.859375 123.304688 9.5 C 123.375 9.550781 123.445312 9.601562 123.519531 9.65625 C 124.59375 10.496094 124.910156 11.820312 125.09375 13.109375 C 125.25 14.507812 125.289062 16.4375 124.414062 17.613281 C 123.5625 18.582031 122.324219 19.117188 121.082031 19.339844 C 120.972656 19.359375 120.972656 19.359375 120.863281 19.378906 C 118.769531 19.679688 116.53125 19.441406 114.777344 18.199219 C 114.507812 17.992188 114.507812 17.992188 114.320312 17.816406 C 114.320312 17.75 114.320312 17.683594 114.320312 17.613281 C 114.25 17.613281 114.1875 17.613281 114.117188 17.613281 C 114.054688 17.492188 113.988281 17.371094 113.925781 17.246094 C 113.890625 17.179688 113.859375 17.109375 113.820312 17.039062 C 113.160156 15.59375 113.308594 14 113.308594 12.441406 C 114.941406 12.441406 116.574219 12.441406 118.253906 12.441406 C 118.238281 13.867188 118.238281 13.867188 118.226562 14.316406 C 118.214844 15.246094 118.214844 15.246094 118.558594 16.09375 C 118.84375 16.238281 119.046875 16.226562 119.363281 16.195312 C 119.667969 16.011719 119.839844 15.902344 119.933594 15.554688 C 120.058594 14.660156 120.105469 13.554688 119.542969 12.796875 C 118.839844 12.0625 117.847656 11.585938 116.988281 11.070312 C 114.742188 9.726562 114.742188 9.726562 114.117188 8.992188 C 114.117188 8.925781 114.117188 8.855469 114.117188 8.789062 C 114.050781 8.789062 113.984375 8.789062 113.914062 8.789062 C 113.007812 7.089844 112.949219 4.863281 113.496094 3.023438 C 113.882812 1.953125 114.78125 1.324219 115.773438 0.84375 C 116.765625 0.449219 117.789062 0.433594 118.839844 0.4375 Z M 118.839844 0.4375 "/>
<path style=" stroke:none;fill-rule:nonzero;fill:rgb(9.019608%,81.568629%,34.901962%);fill-opacity:1;" d="M 184.578125 0.773438 C 187.445312 0.773438 190.308594 0.773438 193.261719 0.773438 C 193.261719 2.011719 193.261719 3.25 193.261719 4.527344 C 192.128906 4.527344 190.996094 4.527344 189.828125 4.527344 C 189.828125 5.597656 189.828125 6.667969 189.828125 7.773438 C 190.851562 7.769531 190.851562 7.769531 191.878906 7.765625 C 192.003906 7.765625 192.132812 7.765625 192.265625 7.761719 C 192.457031 7.761719 192.457031 7.761719 192.660156 7.761719 C 192.957031 7.773438 192.957031 7.773438 193.058594 7.875 C 193.066406 8.136719 193.070312 8.398438 193.070312 8.660156 C 193.066406 8.738281 193.066406 8.816406 193.066406 8.898438 C 193.066406 9.152344 193.066406 9.40625 193.0625 9.65625 C 193.0625 9.828125 193.0625 9.996094 193.0625 10.167969 C 193.0625 10.589844 193.058594 11.003906 193.058594 11.425781 C 191.992188 11.425781 190.925781 11.425781 189.828125 11.425781 C 189.828125 12.730469 189.828125 14.039062 189.828125 15.382812 C 191.0625 15.382812 192.292969 15.382812 193.5625 15.382812 C 193.5625 16.585938 193.5625 17.792969 193.5625 19.035156 C 190.597656 19.035156 187.632812 19.035156 184.578125 19.035156 C 184.578125 13.007812 184.578125 6.984375 184.578125 0.773438 Z M 184.578125 0.773438 "/>
<path style=" stroke:none;fill-rule:nonzero;fill:rgb(9.019608%,81.568629%,34.901962%);fill-opacity:1;" d="M 171.65625 0.773438 C 175.421875 0.773438 179.183594 0.773438 183.066406 0.773438 C 183.066406 2.011719 183.066406 3.25 183.066406 4.527344 C 182.0625 4.527344 181.066406 4.527344 180.035156 4.527344 C 180.035156 9.3125 180.035156 14.101562 180.035156 19.035156 C 178.304688 19.035156 176.570312 19.035156 174.785156 19.035156 C 174.785156 14.246094 174.785156 9.460938 174.785156 4.527344 C 173.753906 4.527344 172.722656 4.527344 171.65625 4.527344 C 171.65625 3.289062 171.65625 2.050781 171.65625 0.773438 Z M 171.65625 0.773438 "/>
<path style=" stroke:none;fill-rule:nonzero;fill:rgb(9.019608%,81.568629%,34.901962%);fill-opacity:1;" d="M 126.128906 0.773438 C 129.894531 0.773438 133.660156 0.773438 137.535156 0.773438 C 137.535156 2.011719 137.535156 3.25 137.535156 4.527344 C 136.503906 4.527344 135.46875 4.527344 134.40625 4.527344 C 134.40625 9.3125 134.40625 14.101562 134.40625 19.035156 C 132.675781 19.035156 130.945312 19.035156 129.15625 19.035156 C 129.15625 14.246094 129.15625 9.460938 129.15625 4.527344 C 128.15625 4.527344 127.160156 4.527344 126.128906 4.527344 C 126.128906 3.289062 126.128906 2.050781 126.128906 0.773438 Z M 126.128906 0.773438 "/>
<path style=" stroke:none;fill-rule:nonzero;fill:rgb(9.019608%,81.568629%,34.901962%);fill-opacity:1;" d="M 145.714844 0.773438 C 149.445312 0.773438 153.175781 0.773438 157.019531 0.773438 C 157.019531 2.011719 157.019531 3.25 157.019531 4.527344 C 156.019531 4.527344 155.023438 4.527344 153.988281 4.527344 C 153.988281 9.3125 153.988281 14.101562 153.988281 19.035156 C 152.257812 19.035156 150.527344 19.035156 148.738281 19.035156 C 148.738281 14.246094 148.738281 9.460938 148.738281 4.527344 C 147.742188 4.527344 146.742188 4.527344 145.714844 4.527344 C 145.714844 3.289062 145.714844 2.050781 145.714844 0.773438 Z M 145.714844 0.773438 "/>
<path style=" stroke:none;fill-rule:nonzero;fill:rgb(9.019608%,81.568629%,34.901962%);fill-opacity:1;" d="M 28.410156 0.773438 C 30.140625 0.773438 31.875 0.773438 33.660156 0.773438 C 33.660156 5.59375 33.660156 10.414062 33.660156 15.382812 C 34.691406 15.382812 35.726562 15.382812 36.789062 15.382812 C 36.789062 16.585938 36.789062 17.792969 36.789062 19.035156 C 34.023438 19.035156 31.257812 19.035156 28.410156 19.035156 C 28.410156 13.007812 28.410156 6.984375 28.410156 0.773438 Z M 28.410156 0.773438 "/>
<path style=" stroke:none;fill-rule:nonzero;fill:rgb(9.019608%,81.568629%,34.901962%);fill-opacity:1;" d="M 38.304688 0.773438 C 40.070312 0.773438 41.832031 0.773438 43.652344 0.773438 C 43.652344 6.796875 43.652344 12.824219 43.652344 19.035156 C 41.886719 19.035156 40.121094 19.035156 38.304688 19.035156 C 38.304688 13.007812 38.304688 6.984375 38.304688 0.773438 Z M 38.304688 0.773438 "/>
<path style=" stroke:none;fill-rule:nonzero;fill:rgb(9.019608%,81.568629%,34.901962%);fill-opacity:1;" d="M 138.949219 0.773438 C 140.683594 0.773438 142.414062 0.773438 144.199219 0.773438 C 144.199219 6.796875 144.199219 12.824219 144.199219 19.035156 C 142.464844 19.035156 140.734375 19.035156 138.949219 19.035156 C 138.949219 13.007812 138.949219 6.984375 138.949219 0.773438 Z M 138.949219 0.773438 "/>
<path style=" stroke:none;fill-rule:nonzero;fill:rgb(9.019608%,81.568629%,34.901962%);fill-opacity:1;" d="M 92.109375 0.773438 C 93.839844 0.773438 95.574219 0.773438 97.359375 0.773438 C 97.359375 6.796875 97.359375 12.824219 97.359375 19.035156 C 95.625 19.035156 93.894531 19.035156 92.109375 19.035156 C 92.109375 13.007812 92.109375 6.984375 92.109375 0.773438 Z M 92.109375 0.773438 "/>
<path style=" stroke:none;fill-rule:nonzero;fill:rgb(9.019608%,81.568629%,34.901962%);fill-opacity:1;" d="M 132.589844 23.5 C 133.65625 23.5 134.722656 23.5 135.820312 23.5 C 135.820312 24.769531 135.820312 26.042969 135.820312 27.355469 C 136.117188 27.355469 136.417969 27.355469 136.730469 27.355469 C 136.730469 26.082031 136.730469 24.808594 136.730469 23.5 C 137.761719 23.5 138.792969 23.5 139.859375 23.5 C 139.859375 27.113281 139.859375 30.730469 139.859375 34.453125 C 138.824219 34.453125 137.792969 34.453125 136.730469 34.453125 C 136.730469 32.949219 136.730469 31.441406 136.730469 29.890625 C 136.429688 29.890625 136.128906 29.890625 135.820312 29.890625 C 135.820312 31.398438 135.820312 32.902344 135.820312 34.453125 C 134.757812 34.453125 133.6875 34.453125 132.589844 34.453125 C 132.589844 30.839844 132.589844 27.222656 132.589844 23.5 Z M 132.589844 23.5 "/>
<path style=" stroke:none;fill-rule:nonzero;fill:rgb(9.019608%,81.568629%,34.901962%);fill-opacity:1;" d="M 36.585938 23.5 C 42.164062 23.5 42.164062 23.5 43.148438 24.210938 C 43.148438 24.273438 43.148438 24.34375 43.148438 24.410156 C 43.214844 24.410156 43.28125 24.410156 43.351562 24.410156 C 43.417969 24.535156 43.484375 24.65625 43.546875 24.78125 C 43.582031 24.847656 43.621094 24.917969 43.65625 24.984375 C 43.859375 25.472656 43.867188 25.972656 43.867188 26.492188 C 43.871094 26.621094 43.871094 26.75 43.871094 26.882812 C 43.871094 27.023438 43.871094 27.164062 43.871094 27.304688 C 43.871094 27.445312 43.871094 27.589844 43.871094 27.738281 C 43.875 28.039062 43.875 28.34375 43.875 28.644531 C 43.875 29.03125 43.875 29.417969 43.875 29.804688 C 43.878906 30.101562 43.878906 30.398438 43.878906 30.699219 C 43.878906 30.84375 43.878906 30.984375 43.878906 31.128906 C 43.890625 33.292969 43.890625 33.292969 43.148438 34.050781 C 41.390625 35.152344 37.652344 34.453125 36.585938 34.453125 C 36.585938 30.839844 36.585938 27.222656 36.585938 23.5 Z M 39.714844 25.527344 C 39.714844 27.835938 39.714844 30.148438 39.714844 32.527344 C 40.382812 32.511719 40.382812 32.511719 40.566406 32.253906 C 40.636719 31.96875 40.652344 31.714844 40.652344 31.421875 C 40.652344 31.242188 40.652344 31.242188 40.652344 31.050781 C 40.652344 30.921875 40.648438 30.792969 40.648438 30.660156 C 40.648438 30.527344 40.648438 30.394531 40.648438 30.253906 C 40.648438 29.972656 40.648438 29.6875 40.644531 29.40625 C 40.644531 29.042969 40.644531 28.679688 40.644531 28.316406 C 40.644531 27.972656 40.644531 27.628906 40.640625 27.277344 C 40.640625 27.148438 40.640625 27.019531 40.640625 26.886719 C 40.640625 26.765625 40.640625 26.644531 40.640625 26.519531 C 40.640625 26.414062 40.636719 26.308594 40.636719 26.199219 C 40.636719 25.921875 40.636719 25.921875 40.523438 25.628906 C 40.269531 25.480469 40.269531 25.480469 39.714844 25.527344 Z M 39.714844 25.527344 "/>
<path style=" stroke:none;fill-rule:nonzero;fill:rgb(9.019608%,81.568629%,34.901962%);fill-opacity:1;" d="M 142.183594 23.5 C 143.113281 23.5 144.046875 23.5 145.007812 23.5 C 145.246094 24.101562 145.460938 24.652344 145.636719 25.269531 C 145.773438 25.71875 145.929688 26.160156 146.085938 26.605469 C 146.195312 26.917969 146.304688 27.234375 146.421875 27.554688 C 146.453125 26.214844 146.484375 24.878906 146.519531 23.5 C 147.421875 23.5 148.320312 23.5 149.246094 23.5 C 149.246094 27.113281 149.246094 30.730469 149.246094 34.453125 C 148.3125 34.453125 147.378906 34.453125 146.421875 34.453125 C 146.078125 33.65625 146.078125 33.65625 145.980469 33.347656 C 145.960938 33.277344 145.9375 33.210938 145.910156 33.132812 C 145.878906 33.027344 145.878906 33.027344 145.84375 32.921875 C 145.824219 32.851562 145.800781 32.785156 145.777344 32.71875 C 145.699219 32.472656 145.621094 32.226562 145.542969 31.976562 C 145.367188 31.421875 145.1875 30.867188 145.007812 30.296875 C 144.972656 31.667969 144.941406 33.042969 144.902344 34.453125 C 144.003906 34.453125 143.109375 34.453125 142.183594 34.453125 C 142.183594 30.839844 142.183594 27.222656 142.183594 23.5 Z M 142.183594 23.5 "/>
<path style=" stroke:none;fill-rule:nonzero;fill:rgb(9.019608%,81.568629%,34.901962%);fill-opacity:1;" d="M 27.199219 23.5 C 28.097656 23.5 28.996094 23.5 29.925781 23.5 C 30.160156 24.039062 30.378906 24.527344 30.5625 25.078125 C 30.597656 25.199219 30.636719 25.3125 30.675781 25.4375 C 30.714844 25.554688 30.753906 25.675781 30.796875 25.796875 C 30.855469 25.984375 30.855469 25.984375 30.917969 26.167969 C 30.992188 26.394531 31.0625 26.621094 31.136719 26.84375 C 31.238281 27.148438 31.335938 27.453125 31.4375 27.761719 C 31.472656 26.351562 31.503906 24.949219 31.542969 23.5 C 32.441406 23.5 33.339844 23.5 34.265625 23.5 C 34.265625 27.113281 34.265625 30.730469 34.265625 34.453125 C 33.332031 34.453125 32.398438 34.453125 31.4375 34.453125 C 31.191406 33.890625 30.964844 33.371094 30.777344 32.785156 C 30.734375 32.664062 30.695312 32.546875 30.652344 32.417969 C 30.605469 32.269531 30.554688 32.117188 30.507812 31.960938 C 30.265625 31.238281 30.265625 31.238281 30.023438 30.5 C 29.992188 31.804688 29.960938 33.109375 29.925781 34.453125 C 29.023438 34.453125 28.125 34.453125 27.199219 34.453125 C 27.199219 30.839844 27.199219 27.222656 27.199219 23.5 Z M 29.824219 29.789062 C 29.925781 29.992188 29.925781 29.992188 29.925781 29.992188 Z M 29.824219 29.789062 "/>
<path style=" stroke:none;fill-rule:nonzero;fill:rgb(9.019608%,81.568629%,34.901962%);fill-opacity:1;" d="M 45.976562 23.5 C 47.042969 23.5 48.109375 23.5 49.203125 23.5 C 49.238281 26.542969 49.273438 29.59375 49.308594 32.730469 C 49.554688 32.679688 49.554688 32.679688 49.8125 32.628906 C 49.929688 32.210938 49.929688 31.808594 49.933594 31.375 C 49.933594 31.292969 49.933594 31.207031 49.933594 31.117188 C 49.9375 30.835938 49.941406 30.554688 49.945312 30.277344 C 49.945312 30.078125 49.949219 29.882812 49.953125 29.6875 C 49.957031 29.175781 49.960938 28.664062 49.964844 28.148438 C 49.972656 27.628906 49.976562 27.105469 49.984375 26.578125 C 49.992188 25.554688 50.003906 24.523438 50.015625 23.5 C 51.046875 23.5 52.082031 23.5 53.144531 23.5 C 53.152344 24.6875 53.160156 25.878906 53.164062 27.066406 C 53.167969 27.621094 53.171875 28.171875 53.171875 28.726562 C 53.175781 29.257812 53.179688 29.789062 53.179688 30.324219 C 53.179688 30.53125 53.183594 30.730469 53.1875 30.9375 C 53.1875 31.21875 53.191406 31.507812 53.1875 31.789062 C 53.191406 31.871094 53.191406 31.957031 53.195312 32.042969 C 53.1875 32.753906 52.964844 33.265625 52.519531 33.8125 C 51.453125 34.695312 50.355469 34.851562 49.003906 34.761719 C 48.070312 34.625 47.21875 34.375 46.582031 33.644531 C 46.582031 33.574219 46.582031 33.511719 46.582031 33.441406 C 46.515625 33.441406 46.449219 33.441406 46.378906 33.441406 C 46.074219 32.667969 45.960938 32.003906 45.960938 31.167969 C 45.960938 31.085938 45.960938 31 45.960938 30.914062 C 45.960938 30.640625 45.964844 30.367188 45.964844 30.09375 C 45.964844 29.90625 45.964844 29.714844 45.964844 29.523438 C 45.964844 29.023438 45.964844 28.527344 45.96875 28.027344 C 45.96875 27.519531 45.96875 27.007812 45.96875 26.496094 C 45.972656 25.5 45.972656 24.496094 45.976562 23.5 Z M 45.976562 23.5 "/>
<path style=" stroke:none;fill-rule:nonzero;fill:rgb(9.019608%,81.568629%,34.901962%);fill-opacity:1;" d="M 72.726562 23.5 C 78.28125 23.5 78.28125 23.5 79.171875 24.269531 C 79.855469 25.015625 79.832031 25.9375 79.820312 26.914062 C 79.777344 27.492188 79.636719 28.171875 79.1875 28.570312 C 78.816406 28.699219 78.816406 28.699219 78.480469 28.773438 C 78.589844 28.835938 78.695312 28.894531 78.808594 28.957031 C 78.933594 29.03125 79.0625 29.105469 79.1875 29.179688 C 79.261719 29.222656 79.339844 29.269531 79.421875 29.3125 C 79.777344 29.667969 79.804688 30.183594 79.816406 30.664062 C 79.816406 30.84375 79.816406 31.019531 79.8125 31.195312 C 79.8125 31.289062 79.8125 31.382812 79.8125 31.480469 C 79.808594 31.777344 79.808594 32.070312 79.804688 32.367188 C 79.804688 32.570312 79.804688 32.773438 79.804688 32.976562 C 79.804688 33.46875 79.796875 33.960938 79.792969 34.453125 C 78.796875 34.453125 77.792969 34.453125 76.765625 34.453125 C 76.730469 32.949219 76.699219 31.441406 76.664062 29.890625 C 76.316406 29.738281 76.316406 29.738281 75.957031 29.585938 C 75.957031 31.191406 75.957031 32.796875 75.957031 34.453125 C 74.890625 34.453125 73.824219 34.453125 72.726562 34.453125 C 72.726562 30.839844 72.726562 27.222656 72.726562 23.5 Z M 75.957031 25.527344 C 75.957031 26.265625 75.957031 27.003906 75.957031 27.761719 C 76.160156 27.761719 76.355469 27.761719 76.566406 27.761719 C 76.828125 27.496094 76.792969 27.304688 76.796875 26.941406 C 76.796875 26.863281 76.796875 26.785156 76.796875 26.703125 C 76.796875 26.621094 76.800781 26.542969 76.800781 26.460938 C 76.8125 26.035156 76.8125 26.035156 76.644531 25.65625 C 76.429688 25.476562 76.429688 25.476562 75.957031 25.527344 Z M 75.957031 25.527344 "/>
<path style=" stroke:none;fill-rule:nonzero;fill:rgb(9.019608%,81.568629%,34.901962%);fill-opacity:1;" d="M 7.332031 24.128906 C 8.230469 25.03125 8.230469 26.027344 8.234375 27.25 C 8.234375 27.414062 8.234375 27.414062 8.234375 27.578125 C 8.234375 27.691406 8.234375 27.808594 8.234375 27.929688 C 8.234375 28.171875 8.234375 28.414062 8.230469 28.65625 C 8.230469 29.023438 8.230469 29.394531 8.234375 29.765625 C 8.234375 30.003906 8.234375 30.238281 8.234375 30.476562 C 8.234375 30.585938 8.234375 30.695312 8.234375 30.804688 C 8.230469 32.867188 8.230469 32.867188 7.597656 33.59375 C 7.5 33.675781 7.410156 33.757812 7.3125 33.84375 C 7.253906 33.894531 7.199219 33.949219 7.140625 34 C 6.242188 34.765625 5.117188 34.84375 3.980469 34.761719 C 3.035156 34.652344 2.238281 34.328125 1.558594 33.644531 C 0.859375 32.6875 0.9375 31.617188 0.9375 30.476562 C 0.9375 30.363281 0.9375 30.246094 0.9375 30.125 C 0.9375 29.882812 0.9375 29.640625 0.9375 29.398438 C 0.9375 29.027344 0.9375 28.660156 0.9375 28.289062 C 0.9375 28.050781 0.9375 27.816406 0.9375 27.578125 C 0.9375 27.46875 0.9375 27.359375 0.9375 27.25 C 0.941406 25.167969 0.941406 25.167969 1.558594 24.410156 C 3.140625 22.902344 5.582031 22.921875 7.332031 24.128906 Z M 4.285156 25.324219 C 4.136719 25.617188 4.171875 25.875 4.171875 26.203125 C 4.171875 26.269531 4.167969 26.339844 4.167969 26.410156 C 4.167969 26.640625 4.167969 26.867188 4.171875 27.097656 C 4.167969 27.253906 4.167969 27.414062 4.167969 27.574219 C 4.167969 27.90625 4.167969 28.238281 4.171875 28.570312 C 4.171875 29 4.171875 29.425781 4.167969 29.851562 C 4.167969 30.179688 4.167969 30.507812 4.167969 30.835938 C 4.167969 30.992188 4.167969 31.152344 4.167969 31.308594 C 4.167969 31.527344 4.167969 31.75 4.171875 31.96875 C 4.171875 32.09375 4.171875 32.21875 4.171875 32.347656 C 4.148438 32.621094 4.148438 32.621094 4.285156 32.730469 C 4.484375 32.734375 4.6875 32.734375 4.886719 32.730469 C 5.058594 32.28125 5.113281 31.917969 5.105469 31.4375 C 5.101562 31.242188 5.101562 31.242188 5.101562 31.035156 C 5.101562 30.886719 5.097656 30.746094 5.09375 30.601562 C 5.089844 30.449219 5.085938 30.304688 5.085938 30.152344 C 5.078125 29.84375 5.074219 29.53125 5.070312 29.21875 C 5.0625 28.820312 5.054688 28.421875 5.046875 28.019531 C 5.046875 27.714844 5.039062 27.410156 5.03125 27.101562 C 5.03125 26.953125 5.027344 26.804688 5.023438 26.65625 C 5.019531 26.453125 5.019531 26.246094 5.015625 26.042969 C 5.011719 25.925781 5.011719 25.808594 5.007812 25.691406 C 5.019531 25.433594 5.019531 25.433594 4.886719 25.324219 C 4.6875 25.320312 4.484375 25.320312 4.285156 25.324219 Z M 4.285156 25.324219 "/>
<path style=" stroke:none;fill-rule:nonzero;fill:rgb(9.019608%,81.568629%,34.901962%);fill-opacity:1;" d="M 174.105469 24.136719 C 174.917969 24.9375 174.988281 25.839844 175 26.929688 C 175.003906 27.144531 175.003906 27.363281 175 27.578125 C 175 27.691406 175 27.808594 175.003906 27.929688 C 175.003906 28.171875 175 28.414062 175 28.65625 C 175 29.023438 175 29.394531 175.003906 29.765625 C 175.003906 30.003906 175 30.238281 175 30.476562 C 175 30.585938 175.003906 30.695312 175.003906 30.804688 C 174.996094 32.960938 174.996094 32.960938 174.3125 33.734375 C 173.390625 34.613281 172.304688 34.785156 171.074219 34.773438 C 170.035156 34.722656 169.097656 34.359375 168.328125 33.644531 C 167.648438 32.75 167.691406 31.539062 167.695312 30.464844 C 167.695312 30.347656 167.695312 30.234375 167.695312 30.117188 C 167.695312 29.875 167.695312 29.632812 167.695312 29.394531 C 167.695312 29.027344 167.695312 28.664062 167.695312 28.296875 C 167.695312 28.0625 167.695312 27.824219 167.695312 27.589844 C 167.695312 27.484375 167.695312 27.375 167.691406 27.265625 C 167.699219 26.15625 167.726562 25.132812 168.523438 24.308594 C 170.03125 22.867188 172.460938 22.960938 174.105469 24.136719 Z M 170.949219 25.527344 C 170.921875 25.835938 170.921875 25.835938 170.929688 26.203125 C 170.929688 26.269531 170.929688 26.34375 170.929688 26.410156 C 170.929688 26.644531 170.929688 26.871094 170.933594 27.101562 C 170.933594 27.257812 170.933594 27.417969 170.933594 27.578125 C 170.933594 27.996094 170.9375 28.414062 170.9375 28.835938 C 170.9375 29.261719 170.9375 29.6875 170.9375 30.117188 C 170.941406 30.953125 170.945312 31.789062 170.949219 32.628906 C 171.183594 32.664062 171.417969 32.695312 171.65625 32.730469 C 171.839844 32.335938 171.886719 32.023438 171.886719 31.585938 C 171.886719 31.460938 171.886719 31.332031 171.890625 31.203125 C 171.886719 31.066406 171.886719 30.929688 171.886719 30.792969 C 171.886719 30.652344 171.886719 30.507812 171.886719 30.367188 C 171.886719 30.074219 171.886719 29.777344 171.886719 29.484375 C 171.886719 29.105469 171.886719 28.726562 171.886719 28.347656 C 171.886719 28.054688 171.886719 27.765625 171.886719 27.46875 C 171.886719 27.332031 171.886719 27.195312 171.886719 27.054688 C 171.890625 26.859375 171.886719 26.664062 171.886719 26.46875 C 171.886719 26.355469 171.886719 26.246094 171.886719 26.128906 C 171.859375 25.828125 171.785156 25.601562 171.65625 25.324219 C 171.257812 25.289062 171.257812 25.289062 170.949219 25.527344 Z M 170.949219 25.527344 "/>
<path style=" stroke:none;fill-rule:nonzero;fill:rgb(9.019608%,81.568629%,34.901962%);fill-opacity:1;" d="M 157.625 23.90625 C 158.265625 24.476562 158.6875 25.085938 158.765625 25.960938 C 158.777344 26.359375 158.777344 26.757812 158.777344 27.164062 C 158.777344 27.3125 158.777344 27.460938 158.78125 27.609375 C 158.78125 27.921875 158.78125 28.234375 158.78125 28.542969 C 158.777344 28.941406 158.78125 29.335938 158.785156 29.734375 C 158.785156 30.039062 158.785156 30.347656 158.785156 30.65625 C 158.785156 30.804688 158.785156 30.949219 158.789062 31.097656 C 158.796875 32.269531 158.632812 33.101562 157.824219 33.976562 C 156.925781 34.765625 155.628906 34.824219 154.496094 34.761719 C 153.609375 34.648438 152.738281 34.335938 152.136719 33.652344 C 151.5 32.824219 151.507812 31.882812 151.515625 30.875 C 151.515625 30.726562 151.515625 30.578125 151.515625 30.429688 C 151.515625 30.117188 151.515625 29.8125 151.515625 29.5 C 151.515625 29.109375 151.515625 28.710938 151.515625 28.316406 C 151.515625 28.015625 151.515625 27.707031 151.515625 27.398438 C 151.515625 27.253906 151.515625 27.109375 151.515625 26.964844 C 151.507812 25.917969 151.582031 25.03125 152.292969 24.21875 C 153.640625 22.996094 156.121094 22.9375 157.625 23.90625 Z M 154.898438 25.324219 C 154.714844 25.71875 154.671875 26.03125 154.671875 26.46875 C 154.667969 26.59375 154.667969 26.722656 154.667969 26.851562 C 154.667969 26.988281 154.667969 27.125 154.667969 27.261719 C 154.667969 27.402344 154.667969 27.546875 154.667969 27.6875 C 154.667969 27.984375 154.667969 28.277344 154.667969 28.574219 C 154.671875 28.949219 154.671875 29.328125 154.667969 29.710938 C 154.667969 30 154.667969 30.289062 154.667969 30.585938 C 154.667969 30.722656 154.667969 30.859375 154.667969 31 C 154.667969 31.195312 154.667969 31.390625 154.671875 31.585938 C 154.671875 31.699219 154.671875 31.808594 154.671875 31.921875 C 154.695312 32.226562 154.773438 32.453125 154.898438 32.730469 C 155.066406 32.730469 155.234375 32.730469 155.402344 32.730469 C 155.589844 32.335938 155.632812 32.023438 155.632812 31.585938 C 155.632812 31.460938 155.632812 31.332031 155.632812 31.203125 C 155.632812 31.066406 155.632812 30.929688 155.632812 30.792969 C 155.632812 30.652344 155.632812 30.507812 155.632812 30.367188 C 155.632812 30.074219 155.632812 29.777344 155.632812 29.484375 C 155.632812 29.105469 155.632812 28.726562 155.632812 28.347656 C 155.632812 28.054688 155.632812 27.765625 155.632812 27.46875 C 155.632812 27.332031 155.632812 27.195312 155.632812 27.054688 C 155.632812 26.859375 155.632812 26.664062 155.632812 26.46875 C 155.632812 26.355469 155.632812 26.246094 155.632812 26.128906 C 155.605469 25.828125 155.535156 25.601562 155.402344 25.324219 C 155.238281 25.324219 155.074219 25.324219 154.898438 25.324219 Z M 154.898438 25.324219 "/>
<path style=" stroke:none;fill-rule:nonzero;fill:rgb(9.019608%,81.568629%,34.901962%);fill-opacity:1;" d="M 183.578125 24.164062 C 184.1875 24.722656 184.324219 25.34375 184.480469 26.136719 C 184.480469 26.640625 184.480469 27.140625 184.480469 27.660156 C 183.410156 27.660156 182.34375 27.660156 181.25 27.660156 C 181.25 26.917969 181.25 26.183594 181.25 25.425781 C 181.015625 25.425781 180.78125 25.425781 180.539062 25.425781 C 180.433594 25.773438 180.429688 26.09375 180.429688 26.457031 C 180.425781 26.582031 180.425781 26.707031 180.425781 26.839844 C 180.425781 26.976562 180.425781 27.113281 180.425781 27.25 C 180.425781 27.390625 180.425781 27.535156 180.425781 27.675781 C 180.425781 27.972656 180.425781 28.269531 180.429688 28.5625 C 180.429688 28.945312 180.429688 29.324219 180.425781 29.703125 C 180.425781 29.996094 180.425781 30.285156 180.425781 30.578125 C 180.425781 30.71875 180.425781 30.859375 180.425781 30.996094 C 180.425781 31.191406 180.425781 31.390625 180.429688 31.585938 C 180.429688 31.695312 180.429688 31.808594 180.429688 31.921875 C 180.4375 32.203125 180.476562 32.457031 180.539062 32.730469 C 180.773438 32.695312 181.003906 32.664062 181.25 32.628906 C 181.28125 31.894531 181.3125 31.15625 181.347656 30.394531 C 181.148438 30.394531 180.949219 30.394531 180.742188 30.394531 C 180.742188 29.792969 180.742188 29.191406 180.742188 28.570312 C 181.976562 28.570312 183.207031 28.570312 184.480469 28.570312 C 184.480469 30.511719 184.480469 32.453125 184.480469 34.453125 C 183.777344 34.453125 183.078125 34.453125 182.359375 34.453125 C 182.289062 34.289062 182.226562 34.121094 182.15625 33.949219 C 182.105469 33.988281 182.054688 34.03125 182 34.074219 C 181.300781 34.625 180.726562 34.851562 179.832031 34.761719 C 179.113281 34.625 178.472656 34.332031 177.917969 33.84375 C 177.917969 33.78125 177.917969 33.710938 177.917969 33.644531 C 177.847656 33.644531 177.785156 33.644531 177.710938 33.644531 C 177.171875 32.675781 177.195312 31.734375 177.195312 30.648438 C 177.195312 30.53125 177.195312 30.410156 177.195312 30.285156 C 177.195312 30.035156 177.195312 29.78125 177.195312 29.527344 C 177.195312 29.144531 177.195312 28.757812 177.195312 28.375 C 177.195312 28.128906 177.195312 27.882812 177.195312 27.636719 C 177.195312 27.523438 177.195312 27.410156 177.195312 27.292969 C 177.199219 25.054688 177.199219 25.054688 177.804688 24.410156 C 179.355469 22.929688 181.867188 22.871094 183.578125 24.164062 Z M 183.578125 24.164062 "/>
<path style=" stroke:none;fill-rule:nonzero;fill:rgb(9.019608%,81.568629%,34.901962%);fill-opacity:1;" d="M 88.574219 23.5 C 90.074219 23.5 91.574219 23.5 93.117188 23.5 C 93.1875 23.96875 93.25 24.433594 93.320312 24.917969 C 93.421875 25.558594 93.535156 26.199219 93.65625 26.835938 C 93.894531 28.070312 94.097656 29.3125 94.292969 30.554688 C 94.335938 30.847656 94.386719 31.136719 94.429688 31.429688 C 94.457031 31.613281 94.488281 31.796875 94.515625 31.984375 C 94.605469 32.558594 94.699219 33.132812 94.800781 33.707031 C 94.835938 33.949219 94.835938 33.949219 94.835938 34.453125 C 93.769531 34.453125 92.703125 34.453125 91.605469 34.453125 C 91.527344 33.992188 91.492188 33.613281 91.5 33.148438 C 91.5 33.03125 91.5 32.914062 91.5 32.796875 C 91.5 32.707031 91.5 32.617188 91.5 32.527344 C 91.136719 32.527344 90.769531 32.527344 90.390625 32.527344 C 90.394531 32.613281 90.394531 32.703125 90.394531 32.796875 C 90.398438 32.910156 90.398438 33.027344 90.398438 33.148438 C 90.402344 33.265625 90.402344 33.378906 90.402344 33.5 C 90.390625 33.84375 90.390625 33.84375 90.292969 34.453125 C 89.191406 34.453125 88.09375 34.453125 86.960938 34.453125 C 87.066406 32.921875 87.066406 32.921875 87.210938 32.34375 C 87.3125 31.90625 87.355469 31.460938 87.410156 31.011719 C 87.5 30.296875 87.59375 29.585938 87.71875 28.875 C 87.835938 28.179688 87.933594 27.488281 88.019531 26.789062 C 88.15625 25.6875 88.308594 24.578125 88.574219 23.5 Z M 90.898438 26.644531 C 90.710938 27.929688 90.550781 29.199219 90.496094 30.5 C 90.761719 30.5 91.027344 30.5 91.300781 30.5 C 91.324219 29.617188 91.257812 28.761719 91.148438 27.886719 C 91.136719 27.765625 91.121094 27.644531 91.105469 27.523438 C 91.070312 27.226562 91.035156 26.9375 91 26.644531 C 90.964844 26.644531 90.929688 26.644531 90.898438 26.644531 Z M 90.898438 26.644531 "/>
<path style=" stroke:none;fill-rule:nonzero;fill:rgb(9.019608%,81.568629%,34.901962%);fill-opacity:1;" d="M 129.542969 24.183594 C 130.085938 24.691406 130.3125 25.269531 130.359375 26.007812 C 130.378906 26.792969 130.375 27.578125 130.371094 28.367188 C 129.335938 28.367188 128.304688 28.367188 127.242188 28.367188 C 127.195312 27.125 127.195312 27.125 127.183594 26.734375 C 127.179688 26.632812 127.171875 26.53125 127.167969 26.429688 C 127.167969 26.269531 127.167969 26.269531 127.160156 26.109375 C 127.140625 25.867188 127.105469 25.660156 127.035156 25.425781 C 126.804688 25.425781 126.570312 25.425781 126.332031 25.425781 C 126.226562 25.773438 126.214844 26.09375 126.214844 26.457031 C 126.214844 26.585938 126.214844 26.710938 126.214844 26.839844 C 126.214844 26.976562 126.214844 27.117188 126.214844 27.253906 C 126.214844 27.398438 126.214844 27.539062 126.214844 27.679688 C 126.214844 27.976562 126.214844 28.273438 126.214844 28.570312 C 126.214844 28.949219 126.214844 29.328125 126.214844 29.710938 C 126.214844 30.003906 126.214844 30.296875 126.214844 30.585938 C 126.214844 30.726562 126.214844 30.867188 126.214844 31.007812 C 126.214844 31.207031 126.214844 31.402344 126.214844 31.597656 C 126.214844 31.707031 126.214844 31.816406 126.214844 31.933594 C 126.226562 32.183594 126.257812 32.390625 126.332031 32.628906 C 126.566406 32.664062 126.796875 32.695312 127.035156 32.730469 C 127.113281 32.378906 127.15625 32.042969 127.167969 31.683594 C 127.171875 31.597656 127.179688 31.507812 127.183594 31.414062 C 127.1875 31.300781 127.191406 31.1875 127.195312 31.078125 C 127.210938 30.71875 127.222656 30.359375 127.242188 29.992188 C 128.273438 29.992188 129.304688 29.992188 130.371094 29.992188 C 130.394531 32.859375 130.394531 32.859375 129.730469 33.597656 C 129.640625 33.679688 129.554688 33.761719 129.460938 33.84375 C 129.367188 33.933594 129.273438 34.023438 129.179688 34.109375 C 128.195312 34.851562 126.933594 34.851562 125.753906 34.730469 C 124.8125 34.574219 124.039062 34.195312 123.4375 33.4375 C 122.859375 32.582031 122.984375 31.339844 122.984375 30.347656 C 122.984375 30.230469 122.984375 30.113281 122.984375 29.992188 C 122.984375 29.742188 122.984375 29.492188 122.984375 29.246094 C 122.988281 28.867188 122.984375 28.492188 122.984375 28.113281 C 122.984375 27.875 122.984375 27.632812 122.984375 27.386719 C 122.984375 27.277344 122.984375 27.164062 122.984375 27.050781 C 122.992188 25.140625 122.992188 25.140625 123.707031 24.308594 C 125.214844 22.875 127.933594 22.917969 129.542969 24.183594 Z M 129.542969 24.183594 "/>
<path style=" stroke:none;fill-rule:nonzero;fill:rgb(9.019608%,81.568629%,34.901962%);fill-opacity:1;" d="M 60.410156 23.5 C 60.539062 23.535156 60.539062 23.535156 60.671875 23.578125 C 61.277344 23.789062 61.703125 24.042969 62.027344 24.613281 C 62.332031 25.359375 62.230469 26.15625 62.230469 26.949219 C 61.261719 26.949219 60.296875 26.949219 59.300781 26.949219 C 59.265625 26.511719 59.234375 26.074219 59.199219 25.628906 C 59.152344 25.527344 59.152344 25.527344 59.101562 25.425781 C 58.933594 25.425781 58.765625 25.425781 58.59375 25.425781 C 58.445312 25.882812 58.441406 26.269531 58.585938 26.730469 C 58.886719 27.191406 59.289062 27.382812 59.761719 27.644531 C 62.015625 28.953125 62.015625 28.953125 62.402344 30.113281 C 62.664062 31.175781 62.71875 32.539062 62.230469 33.539062 C 61.691406 34.234375 60.914062 34.542969 60.082031 34.734375 C 58.636719 34.828125 57.25 34.796875 56.070312 33.84375 C 55.289062 32.972656 55.445312 31.582031 55.464844 30.5 C 56.433594 30.5 57.394531 30.5 58.394531 30.5 C 58.4375 31.390625 58.4375 31.390625 58.449219 31.675781 C 58.453125 31.785156 58.453125 31.785156 58.460938 31.898438 C 58.464844 31.972656 58.46875 32.042969 58.472656 32.121094 C 58.488281 32.34375 58.488281 32.34375 58.59375 32.628906 C 58.792969 32.628906 58.992188 32.628906 59.199219 32.628906 C 59.449219 32.253906 59.46875 31.84375 59.402344 31.410156 C 59.199219 30.671875 58.769531 30.425781 58.132812 30.039062 C 57.949219 29.929688 57.769531 29.8125 57.582031 29.695312 C 57.414062 29.589844 57.25 29.488281 57.082031 29.382812 C 56.25 28.859375 55.769531 28.429688 55.433594 27.496094 C 55.242188 26.570312 55.1875 25.316406 55.703125 24.492188 C 56.117188 23.96875 56.554688 23.699219 57.179688 23.5 C 57.285156 23.464844 57.285156 23.464844 57.390625 23.429688 C 58.359375 23.167969 59.457031 23.195312 60.410156 23.5 Z M 60.410156 23.5 "/>
<path style=" stroke:none;fill-rule:nonzero;fill:rgb(9.019608%,81.568629%,34.901962%);fill-opacity:1;" d="M 115.527344 23.5 C 117.292969 23.5 119.058594 23.5 120.882812 23.5 C 120.882812 24.269531 120.882812 25.035156 120.882812 25.832031 C 120.179688 25.832031 119.480469 25.832031 118.761719 25.832031 C 118.761719 26.46875 118.761719 27.105469 118.761719 27.761719 C 119.390625 27.761719 120.027344 27.761719 120.679688 27.761719 C 120.679688 28.460938 120.679688 29.164062 120.679688 29.890625 C 120.042969 29.890625 119.414062 29.890625 118.761719 29.890625 C 118.761719 30.660156 118.761719 31.429688 118.761719 32.226562 C 119.523438 32.226562 120.292969 32.226562 121.082031 32.226562 C 121.082031 32.960938 121.082031 33.695312 121.082031 34.453125 C 119.25 34.453125 117.417969 34.453125 115.527344 34.453125 C 115.527344 30.839844 115.527344 27.222656 115.527344 23.5 Z M 115.527344 23.5 "/>
<path style=" stroke:none;fill-rule:nonzero;fill:rgb(9.019608%,81.568629%,34.901962%);fill-opacity:1;" d="M 186.089844 23.5 C 187.058594 23.5 188.023438 23.5 189.019531 23.5 C 189.207031 24.300781 189.386719 25.105469 189.546875 25.914062 C 189.574219 26.050781 189.574219 26.050781 189.601562 26.1875 C 189.640625 26.40625 189.683594 26.625 189.726562 26.84375 C 189.761719 26.84375 189.792969 26.84375 189.828125 26.84375 C 190.027344 25.859375 190.027344 25.859375 190.214844 24.871094 C 190.226562 24.796875 190.242188 24.722656 190.253906 24.648438 C 190.28125 24.503906 190.308594 24.363281 190.335938 24.21875 C 190.421875 23.722656 190.421875 23.722656 190.535156 23.5 C 191.503906 23.5 192.464844 23.5 193.464844 23.5 C 193.351562 24.183594 193.351562 24.183594 193.238281 24.519531 C 193.203125 24.632812 193.203125 24.632812 193.164062 24.75 C 193.136719 24.828125 193.113281 24.90625 193.085938 24.988281 C 193.058594 25.074219 193.027344 25.160156 193 25.25 C 192.914062 25.519531 192.824219 25.789062 192.734375 26.058594 C 192.679688 26.234375 192.621094 26.414062 192.566406 26.59375 C 192.335938 27.289062 192.105469 27.988281 191.875 28.6875 C 191.847656 28.769531 191.820312 28.851562 191.789062 28.9375 C 191.738281 29.09375 191.6875 29.246094 191.632812 29.40625 C 191.398438 30.09375 191.324219 30.695312 191.3125 31.414062 C 191.308594 31.5 191.308594 31.589844 191.304688 31.679688 C 191.296875 31.953125 191.289062 32.230469 191.285156 32.507812 C 191.28125 32.695312 191.277344 32.882812 191.273438 33.074219 C 191.261719 33.535156 191.253906 33.996094 191.242188 34.453125 C 190.277344 34.453125 189.308594 34.453125 188.316406 34.453125 C 188.320312 34.210938 188.324219 33.964844 188.332031 33.714844 C 188.355469 31.417969 188.035156 29.496094 187.246094 27.347656 C 186.90625 26.421875 186.636719 25.46875 186.359375 24.515625 C 186.300781 24.328125 186.238281 24.140625 186.171875 23.953125 C 186.089844 23.699219 186.089844 23.699219 186.089844 23.5 Z M 186.089844 23.5 "/>
<path style=" stroke:none;fill-rule:nonzero;fill:rgb(9.019608%,81.568629%,34.901962%);fill-opacity:1;" d="M 10.441406 23.5 C 12.207031 23.5 13.972656 23.5 15.792969 23.5 C 15.792969 24.269531 15.792969 25.035156 15.792969 25.832031 C 15.089844 25.832031 14.390625 25.832031 13.671875 25.832031 C 13.671875 26.46875 13.671875 27.105469 13.671875 27.761719 C 14.304688 27.761719 14.9375 27.761719 15.589844 27.761719 C 15.589844 28.460938 15.589844 29.164062 15.589844 29.890625 C 14.957031 29.890625 14.324219 29.890625 13.671875 29.890625 C 13.671875 31.398438 13.671875 32.902344 13.671875 34.453125 C 12.605469 34.453125 11.539062 34.453125 10.441406 34.453125 C 10.441406 30.839844 10.441406 27.222656 10.441406 23.5 Z M 10.441406 23.5 "/>
<path style=" stroke:none;fill-rule:nonzero;fill:rgb(9.019608%,81.568629%,34.901962%);fill-opacity:1;" d="M 106.847656 23.5 C 109.148438 23.5 111.445312 23.5 113.8125 23.5 C 113.8125 24.269531 113.8125 25.035156 113.8125 25.832031 C 113.183594 25.832031 112.546875 25.832031 111.894531 25.832031 C 111.894531 28.675781 111.894531 31.523438 111.894531 34.453125 C 110.863281 34.453125 109.832031 34.453125 108.765625 34.453125 C 108.765625 31.609375 108.765625 28.761719 108.765625 25.832031 C 108.132812 25.832031 107.5 25.832031 106.847656 25.832031 C 106.847656 25.0625 106.847656 24.292969 106.847656 23.5 Z M 106.847656 23.5 "/>
<path style=" stroke:none;fill-rule:nonzero;fill:rgb(9.019608%,81.568629%,34.901962%);fill-opacity:1;" d="M 64.046875 23.5 C 66.308594 23.5 68.574219 23.5 70.910156 23.5 C 70.910156 24.269531 70.910156 25.035156 70.910156 25.832031 C 70.277344 25.832031 69.644531 25.832031 68.992188 25.832031 C 68.992188 28.675781 68.992188 31.523438 68.992188 34.453125 C 67.960938 34.453125 66.925781 34.453125 65.863281 34.453125 C 65.863281 31.609375 65.863281 28.761719 65.863281 25.832031 C 65.261719 25.832031 64.664062 25.832031 64.046875 25.832031 C 64.046875 25.0625 64.046875 24.292969 64.046875 23.5 Z M 64.046875 23.5 "/>
<path style=" stroke:none;fill-rule:nonzero;fill:rgb(9.019608%,81.568629%,34.901962%);fill-opacity:1;" d="M 161.058594 23.5 C 162.089844 23.5 163.125 23.5 164.1875 23.5 C 164.1875 26.375 164.1875 29.257812 164.1875 32.226562 C 164.820312 32.226562 165.453125 32.226562 166.105469 32.226562 C 166.105469 32.960938 166.105469 33.695312 166.105469 34.453125 C 164.4375 34.453125 162.773438 34.453125 161.058594 34.453125 C 161.058594 30.839844 161.058594 27.222656 161.058594 23.5 Z M 161.058594 23.5 "/>
<path style=" stroke:none;fill-rule:nonzero;fill:rgb(9.019608%,81.568629%,34.901962%);fill-opacity:1;" d="M 96.550781 23.5 C 97.585938 23.5 98.617188 23.5 99.679688 23.5 C 99.679688 26.375 99.679688 29.257812 99.679688 32.226562 C 100.316406 32.226562 100.945312 32.226562 101.597656 32.226562 C 101.597656 32.960938 101.597656 33.695312 101.597656 34.453125 C 99.933594 34.453125 98.269531 34.453125 96.550781 34.453125 C 96.550781 30.839844 96.550781 27.222656 96.550781 23.5 Z M 96.550781 23.5 "/>
<path style=" stroke:none;fill-rule:nonzero;fill:rgb(9.019608%,81.568629%,34.901962%);fill-opacity:1;" d="M 82.117188 23.5 C 83.148438 23.5 84.183594 23.5 85.246094 23.5 C 85.246094 27.113281 85.246094 30.730469 85.246094 34.453125 C 84.210938 34.453125 83.175781 34.453125 82.117188 34.453125 C 82.117188 30.839844 82.117188 27.222656 82.117188 23.5 Z M 82.117188 23.5 "/>
<path style=" stroke:none;fill-rule:nonzero;fill:rgb(9.019608%,81.568629%,34.901962%);fill-opacity:1;" d="M 21.644531 23.5 C 22.679688 23.5 23.710938 23.5 24.773438 23.5 C 24.773438 27.113281 24.773438 30.730469 24.773438 34.453125 C 23.742188 34.453125 22.710938 34.453125 21.644531 34.453125 C 21.644531 30.839844 21.644531 27.222656 21.644531 23.5 Z M 21.644531 23.5 "/>
</g>
</svg>
