<svg xmlns="http://www.w3.org/2000/svg" width="195" height="35"><path d="M99.68.773h4.445c.453 1.028.453 1.028.605 1.454q.054.139.102.285c.055.14.055.14.106.285q.047.14.101.281c.191.531.363 1.063.516 1.606.105.328.25.64.386.96.297.872.598 1.739.907 2.637.03-2.476.066-4.957.101-7.508h4.442v18.262h-4.743c-.457-1.027-.457-1.027-.578-1.45l-.086-.28-.082-.293a89 89 0 0 0-.972-3.051c-.235-.703-.465-1.402-.707-2.129-.032 2.375-.067 4.754-.098 7.203H99.68zM45.977.773h4.441l.402 1.118.149.343c.222.528.402 1.067.586 1.61.328.965.664 1.926 1.02 2.883q.283.774.57 1.554c.03-2.476.066-4.957.101-7.508h4.336v18.262H52.84a29 29 0 0 1-.645-1.933 50 50 0 0 0-.793-2.5c-.132-.399-.265-.801-.398-1.196l-.07-.219c-.184-.55-.348-1.101-.516-1.66-.035 2.477-.066 4.953-.102 7.508h-4.34zM158.434.773h5.246l.007 1.329.024 4.347q.008 1.322.016 2.64c.003.766.003 1.532.011 2.298 0 .406.004.808.004 1.215q.004.571.008 1.144.002.21.004.422c-.004.98-.004.98.23 1.926.313.054.594.101.91.101.106-.785.118-1.558.122-2.347q-.001-.218.004-.434c0-.383.003-.77.007-1.152q.001-.614.008-1.215c0-.766.008-1.527.012-2.293.004-.871.012-1.738.016-2.613.011-1.786.023-3.578.03-5.368h5.25c.005 1.918.009 3.832.012 5.75q.002 1.33.004 2.665c.004.777.004 1.55.008 2.328v2.816c.008 1.113-.09 1.988-.625 2.977h-.203l-.07.171c-.508.895-1.528 1.415-2.477 1.696-2.062.554-4.449.406-6.336-.61a4.9 4.9 0 0 1-1.515-1.355l-.16-.207c-1-1.418-.56-3.984-.555-5.625V5.727q.001-2.474.008-4.954M.953.773h5.25c.031 2.11.067 4.22.098 6.391.133-.434.27-.867.406-1.32.156-.414.156-.414.227-.61.191-.515.343-1.058.507-1.586.168-.539.352-1.062.57-1.582.165-.421.282-.859.41-1.293h4.95c-.23 1.028-.23 1.028-.379 1.422l-.094.262c-.035.094-.07.18-.101.277q-.115.296-.219.59a9 9 0 0 0-.11.301c-.163.445-.32.898-.476 1.344-.21.613-.426 1.222-.656 1.828l-.07.2a18 18 0 0 1-.383.94c-.367.864-.356 1.399-.016 2.27.18.469.328.945.485 1.422.066.21.14.422.207.633q.17.511.34 1.015c.195.586.382 1.168.578 1.75.976 2.899.976 2.899 1.195 4.008h-5.45a84 84 0 0 1-.925-3.36c-.3-1.19-.649-2.355-.996-3.538-.031 2.277-.063 4.554-.098 6.898H.953zM69.902 1.484c1.18.907 1.727 1.813 1.934 3.286.113.93.125 1.867.082 2.8-.164.168-.356.114-.582.117h-1.7189999999999999c-.37-.003-.742 0-1.113 0h-1.352q-.137-.004-.273-.003c-.211-.012-.211-.012-.309-.114q-.021-.38-.03-.754c0-.074-.005-.152-.005-.23q-.011-.363-.015-.727l-.024-.957q.001-.111-.004-.222c-.008-.313-.023-.563-.125-.864-.3-.148-.578-.109-.906-.101-.27.672-.348 1.254-.344 1.973v.308c-.004.332 0 .664 0 .996v.703q-.001.728.004 1.461.006.932 0 1.871c0 .477.004.961.004 1.442v.687q-.001.482.004.969v.281c.004.594.082 1.114.23 1.688.508.093.508.093 1.008 0 .406-.77.356-1.707.375-2.551q.004-.205.008-.41l.023-.996q-.109-.001-.218.004h-.282c-.093.004-.183.004-.28.007-.231-.011-.231-.011-.333-.113a16 16 0 0 1-.012-.605V9.555c.012-.258.012-.258.114-.36.187-.011.379-.015.566-.015h5.25c.238.015.238.015.34.117q.018.45.012.906v1.887q-.002.866-.004 1.726.001.881-.004 1.762.001 1.729-.004 3.457h-3.531c-.305-.914-.305-.914-.305-1.117h-.2l-.081.184c-.297.546-.957 1.027-1.543 1.199-1.633.375-3.117.082-4.535-.774-.97-.703-1.508-1.586-1.817-2.738-.144-1.121-.117-2.266-.113-3.39V7.456c-.008-4.121-.008-4.121 1.023-5.262 2.344-2.152 6.407-2.511 9.086-.71M16.8.773h7.473c.141.497.247.934.317 1.438.02.14.043.277.058.418.012.07.02.144.036.219a61 61 0 0 0 .507 3.129c.164.824.293 1.652.418 2.484.235 1.625.508 3.246.774 4.867q.02.117.043.235c.137.824.273 1.652.418 2.472q.034.205.074.402.063.373.133.747c.031.164.031.164.058.332q.028.144.055.289c.047.41.035.82.035 1.23h-5.351c-.227-2.394-.227-2.394-.203-3.246H19.93c-.012.184-.028.363-.04.555q-.03.363-.054.726c-.016.18-.016.18-.027.364l-.024.355c-.012.11-.02.215-.027.328-.028.305-.078.613-.13.918h-5.452c0-.578.02-1 .12-1.55a68 68 0 0 0 .423-2.817q.252-1.858.527-3.711l.035-.21q.212-1.409.453-2.806.06-.39.102-.78c.07-.677.184-1.348.289-2.02q.343-2.18.676-4.368m3.938 4.973c-.187.594-.277 1.184-.351 1.805-.016.105-.028.207-.043.316l-.082.66c-.04.336-.086.668-.125 1.004q-.043.322-.078.645c-.016.097-.028.199-.043.297-.078.66-.094 1.3-.086 1.968h1.515q-.165-1.875-.36-3.75c-.1-.98-.198-1.96-.245-2.945zM75.656.773h7.469c.46 2.329.46 2.329.57 3.055.016.086.028.168.043.258q.042.264.082.535c.075.484.149.973.227 1.457.016.098.031.195.05.3.157 1.009.325 2.013.493 3.017.281 1.69.55 3.382.816 5.074.137.89.281 1.781.446 2.668.113.636.203 1.25.203 1.898h-5.352c-.226-2.394-.226-2.394-.203-3.246-.566.031-1.133.066-1.715.102a981 981 0 0 0-.305 3.144h-5.55c.312-2.203.312-2.203.496-3.285.097-.582.176-1.164.25-1.75.164-1.297.36-2.586.558-3.879.184-1.195.36-2.387.508-3.586q.112-.855.254-1.703a46 46 0 0 0 .379-2.719c.02-.125.02-.125.031-.25.063-.37.156-.73.25-1.09m3.836 4.567.098.305Zm0 .504c-.558 3.285-.558 3.285-.808 6.597h1.613l-.094-.73a36 36 0 0 1-.18-1.832c-.101-1.352-.218-2.7-.433-4.035zM118.84.438c.129 0 .258-.004.387-.004 1.625-.004 3.113.312 4.378 1.355q.112.073.223.152c.063.047.121.098.184.149v.305h.199c.047.16.098.324.144.484.028.086.055.18.082.273.028.086.051.168.079.258.015.063.035.121.054.184.059.281.055.547.055.84v.32q-.002.2-.004.406c-.004.43-.004.856-.008 1.293h-4.843c-.043-1.195-.043-1.195-.06-1.57q0-.151-.01-.301l-.013-.3c-.007-.274-.007-.274-.12-.567q-.222-.004-.442-.008c-.121 0-.121 0-.25-.004-.223 0-.223 0-.418.113-.219.418-.234.793-.234 1.262 0 .133-.004.262-.004.395.05.5.176.832.543 1.172.582.39 1.175.726 1.793 1.05.96.524 1.86 1.164 2.75 1.805l.215.156c1.074.84 1.39 2.164 1.574 3.453.156 1.399.195 3.329-.68 4.504-.852.969-2.09 1.504-3.332 1.727l-.219.039c-2.093.3-4.332.062-6.086-1.18-.27-.207-.27-.207-.457-.383v-.203h-.203c-.062-.12-.129-.242-.191-.367-.035-.066-.067-.137-.106-.207-.66-1.445-.511-3.039-.511-4.598h4.945c-.016 1.426-.016 1.426-.027 1.875-.012.93-.012.93.332 1.778.285.144.488.133.804.101.305-.183.477-.293.57-.64.126-.895.172-2-.39-2.758-.703-.735-1.695-1.211-2.555-1.727-2.246-1.343-2.246-1.343-2.87-2.078V8.79h-.204c-.906-1.7-.965-3.926-.418-5.766.387-1.07 1.285-1.699 2.277-2.18.993-.394 2.016-.41 3.067-.405M184.578.773h8.684v3.754h-3.434v3.246l2.05-.007q.189.001.388-.004h.394c.297.011.297.011.399.113q.01.393.011.785-.005.116-.004.238.001.382-.004.758v.512c0 .422-.003.836-.003 1.258h-3.23v3.957h3.733v3.652h-8.984zM171.656.773h11.41v3.754h-3.03v14.508h-5.25V4.527h-3.13zM126.129.773h11.406v3.754h-3.129v14.508h-5.25V4.527h-3.027zM145.715.773h11.305v3.754h-3.032v14.508h-5.25V4.527h-3.023zM28.41.773h5.25v14.61h3.13v3.652h-8.38zM38.305.773h5.347v18.262h-5.347zM138.95.773h5.25v18.262h-5.25zM92.11.773h5.25v18.262h-5.25zM132.59 23.5h3.23v3.855h.91V23.5h3.13v10.953h-3.13v-4.562h-.91v4.562h-3.23zM36.586 23.5c5.578 0 5.578 0 6.562.71v.2h.204q.1.186.195.371.054.102.11.203c.202.489.21.989.21 1.508q.005.194.004.39v.856c.004.301.004.606.004.907v1.16q.005.444.004.894v.43c.012 2.164.012 2.164-.73 2.922-1.758 1.101-5.497.402-6.563.402zm3.129 2.027v7c.668-.015.668-.015.851-.273.07-.285.086-.54.086-.832v-.371c0-.13-.004-.258-.004-.39v-.407c0-.281 0-.567-.003-.848v-1.09q.001-.513-.004-1.039v-.757c0-.106-.004-.211-.004-.32 0-.278 0-.278-.114-.571-.253-.149-.253-.149-.808-.102M142.184 23.5h2.824c.238.602.453 1.152.629 1.77.136.449.293.89.449 1.335.11.313.219.63.336.95.031-1.34.062-2.676.098-4.055h2.726v10.953h-2.824c-.344-.797-.344-.797-.442-1.105-.02-.07-.042-.137-.07-.215-.031-.106-.031-.106-.066-.211q-.03-.105-.067-.203l-.234-.742c-.176-.555-.356-1.11-.535-1.68-.035 1.371-.067 2.746-.106 4.156h-2.718zM27.2 23.5h2.726c.234.54.453 1.027.637 1.578.035.121.074.235.113.36q.058.176.12.359c.06.187.06.187.122.371q.11.341.219.676.15.456.3.918c.036-1.41.067-2.813.106-4.262h2.723v10.953h-2.828c-.247-.562-.473-1.082-.66-1.668l-.126-.367q-.072-.222-.144-.457c-.242-.723-.242-.723-.485-1.461-.03 1.305-.062 2.61-.097 3.953h-2.727zm2.624 6.29.102.202ZM45.977 23.5h3.226l.106 9.23.504-.101c.117-.418.117-.82.12-1.254v-.258l.012-.84q.001-.297.008-.59l.012-1.539c.008-.52.012-1.043.02-1.57a809 809 0 0 1 .03-3.078h3.13q.011 1.784.02 3.566.006.83.007 1.66.007.797.008 1.598c0 .207.004.406.008.613 0 .282.003.57 0 .852q.003.124.007.254c-.008.71-.23 1.223-.675 1.77-1.067.882-2.165 1.039-3.516.949-.934-.137-1.785-.387-2.422-1.117v-.204h-.203c-.305-.773-.418-1.437-.418-2.273v-.254c0-.273.004-.547.004-.82v-.57q-.001-.748.004-1.497v-1.53c.004-.997.004-2 .008-2.997M72.727 23.5c5.554 0 5.554 0 6.445.77.683.746.66 1.668.648 2.644-.043.578-.183 1.258-.632 1.656-.372.13-.372.13-.708.203.11.063.215.122.329.184.125.074.254.148.379.223.074.043.152.09.234.133.355.355.383.87.394 1.351q.001.27-.004.531v.285q-.003.444-.007.887v.61c0 .492-.008.984-.012 1.476h-3.027c-.036-1.504-.067-3.012-.102-4.562-.348-.153-.348-.153-.707-.305v4.867h-3.23zm3.23 2.027v2.235h.61c.261-.266.226-.457.23-.82v-.239c0-.082.004-.16.004-.242.011-.426.011-.426-.156-.805-.215-.18-.215-.18-.688-.129M7.332 24.129c.898.902.898 1.898.902 3.121v.6799999999999999q.001.363-.004.726-.001.552.004 1.11v1.039c-.004 2.062-.004 2.062-.636 2.789-.098.082-.188.164-.285.25-.06.05-.114.105-.172.156-.899.766-2.024.844-3.16.762-.946-.11-1.743-.434-2.422-1.117-.7-.958-.621-2.028-.621-3.168V27.25c.003-2.082.003-2.082.62-2.84 1.583-1.508 4.024-1.488 5.774-.281m-3.047 1.195c-.148.293-.113.551-.113.88q-.002.1-.004.206-.001.343.004.688-.005.235-.004.476-.001.498.004.996.001.644-.004 1.282v1.4569999999999999c0 .218 0 .441.004.66v.379c-.024.273-.024.273.113.382q.301.006.602 0c.172-.449.226-.812.218-1.292-.003-.196-.003-.196-.003-.403 0-.148-.004-.289-.008-.433-.004-.153-.008-.297-.008-.45q-.011-.463-.016-.933l-.023-1.2c0-.304-.008-.609-.016-.917q-.001-.223-.008-.446c-.003-.203-.003-.41-.007-.613-.004-.117-.004-.234-.008-.352.012-.257.012-.257-.121-.367q-.302-.006-.602 0M174.105 24.137c.813.8.883 1.703.895 2.793q.006.324 0 .648-.001.17.004.352-.002.363-.004.726-.001.552.004 1.11c0 .238-.004.472-.004.71q.002.165.004.329c-.008 2.156-.008 2.156-.691 2.93-.922.878-2.008 1.05-3.239 1.038-1.039-.05-1.976-.414-2.746-1.128-.68-.895-.637-2.106-.633-3.18V27.59q.001-.16-.004-.324c.008-1.11.036-2.133.832-2.957 1.508-1.442 3.938-1.348 5.582-.172m-3.156 1.39c-.027.309-.027.309-.02.676v.207c0 .235 0 .461.005.692v.476q.002.626.004 1.258v1.281l.011 2.512q.351.05.707.101c.184-.394.23-.707.23-1.144q-.001-.189.005-.383-.005-.205-.004-.41v-3.7379999999999995c.004-.196 0-.39 0-.586v-.34a2.3 2.3 0 0 0-.23-.805c-.4-.035-.4-.035-.708.203M157.625 23.906c.64.57 1.063 1.18 1.14 2.055.012.398.012.797.012 1.203q-.001.223.004.445v.934q-.004.595.004 1.191v.922c0 .149 0 .293.004.442.008 1.172-.156 2.004-.965 2.879-.898.789-2.195.847-3.328.785-.887-.114-1.758-.426-2.36-1.11-.636-.828-.628-1.77-.62-2.777v-3.91c-.008-1.047.066-1.934.777-2.746 1.348-1.223 3.828-1.282 5.332-.313m-2.727 1.418c-.183.395-.226.707-.226 1.145q-.005.189-.004.383v1.722q.006.563 0 1.137V31q-.001.292.004.586v.336c.023.305.101.531.226.808h.504c.188-.394.23-.707.23-1.144v-5.457a2.2 2.2 0 0 0-.23-.805zM183.578 24.164c.61.559.746 1.18.902 1.973v1.523h-3.23v-2.234h-.71c-.106.347-.11.668-.11 1.031q-.005.186-.004.383v.836q-.001.447.004.887.001.572-.004 1.14v1.293c0 .195 0 .395.004.59v.336c.007.281.047.535.11.808.233-.035.464-.066.71-.101.031-.734.063-1.473.098-2.234h-.606V28.57h3.738v5.883h-2.12c-.07-.164-.133-.332-.204-.504l-.156.125c-.7.551-1.273.778-2.168.688a3.95 3.95 0 0 1-1.914-.918v-.2h-.207c-.54-.968-.516-1.91-.516-2.996v-3.3549999999999995c.004-2.238.004-2.238.61-2.883 1.55-1.48 4.062-1.539 5.773-.246M88.574 23.5h4.543c.07.469.133.934.203 1.418q.154.961.336 1.918c.239 1.234.442 2.477.637 3.719.043.293.094.582.137.875q.042.274.086.554.133.862.285 1.723c.035.242.035.242.035.746h-3.23a6.7 6.7 0 0 1-.106-1.305v-.621h-1.11q.006.129.005.27.004.17.003.351c.004.118.004.23.004.352-.011.344-.011.344-.109.953h-3.332c.105-1.531.105-1.531.25-2.11.102-.437.144-.882.2-1.331.089-.715.183-1.426.308-2.137.117-.695.215-1.387.3-2.086.137-1.102.29-2.21.555-3.289m2.324 3.145c-.187 1.285-.347 2.554-.402 3.855h.805a17 17 0 0 0-.153-2.613 12 12 0 0 0-.043-.364L91 26.645zM129.543 24.184c.543.507.77 1.086.816 1.824.02.785.016 1.57.012 2.36h-3.129c-.047-1.243-.047-1.243-.058-1.634-.004-.101-.012-.203-.016-.304 0-.16 0-.16-.008-.32a3 3 0 0 0-.125-.684h-.703c-.105.347-.117.668-.117 1.031v5.477c.012.25.043.457.117.695.234.035.465.066.703.101.078-.351.121-.687.133-1.046q.008-.129.016-.27l.011-.336c.016-.36.028-.719.047-1.086h3.13c.023 2.867.023 2.867-.642 3.606-.09.082-.175.164-.27.246q-.14.136-.28.265c-.985.743-2.246.743-3.426.621-.942-.156-1.715-.535-2.317-1.292-.578-.856-.453-2.098-.453-3.09v-1.1019999999999999c.004-.379 0-.754 0-1.133v-1.062c.008-1.91.008-1.91.723-2.742 1.508-1.434 4.227-1.391 5.836-.125M60.41 23.5c.13.035.13.035.262.078.605.211 1.031.465 1.355 1.035.305.746.203 1.543.203 2.336H59.3l-.1-1.32c-.048-.102-.048-.102-.098-.203h-.508a2 2 0 0 0-.008 1.304c.3.461.703.653 1.176.915 2.254 1.308 2.254 1.308 2.64 2.468.262 1.063.317 2.426-.172 3.426-.539.695-1.316 1.004-2.148 1.195-1.445.094-2.832.063-4.012-.89-.78-.871-.625-2.262-.605-3.344h2.93c.042.89.042.89.054 1.176.004.11.004.11.012.222l.012.223c.015.223.015.223.12.508h.606c.25-.375.27-.785.203-1.219-.203-.738-.632-.984-1.27-1.37-.183-.11-.362-.227-.55-.345l-.5-.312c-.832-.524-1.312-.953-1.648-1.887-.192-.926-.246-2.18.27-3.004.413-.523.85-.793 1.476-.992l.21-.07a5.47 5.47 0 0 1 3.02.07M115.527 23.5h5.356v2.332h-2.121v1.93h1.918v2.129h-1.918v2.336h2.32v2.226h-5.555zM186.09 23.5h2.93c.187.8.367 1.605.527 2.414l.055.273q.06.33.125.657h.101c.2-.985.2-.985.387-1.973q.02-.11.039-.223l.082-.43c.086-.495.086-.495.2-.718h2.929c-.113.684-.113.684-.227 1.02-.035.113-.035.113-.074.23-.027.078-.05.156-.078.238-.027.086-.059.172-.086.262q-.13.405-.266.809c-.054.175-.113.355-.168.535l-.691 2.093-.086.25c-.05.157-.101.31-.156.47-.235.687-.309 1.288-.32 2.007-.004.086-.004.176-.008.266q-.013.41-.02.828l-.012.566-.03 1.38h-2.927q.005-.365.016-.74c.023-2.296-.297-4.218-1.086-6.366-.34-.926-.61-1.88-.887-2.832a16 16 0 0 0-.187-.563c-.082-.254-.082-.254-.082-.453M10.441 23.5h5.352v2.332h-2.121v1.93h1.918v2.129h-1.918v4.562h-3.23zM106.848 23.5h6.965v2.332h-1.918v8.621h-3.13v-8.621h-1.917zM64.047 23.5h6.863v2.332h-1.918v8.621h-3.129v-8.621h-1.816zM161.059 23.5h3.129v8.727h1.917v2.226h-5.046zM96.55 23.5h3.13v8.727h1.918v2.226H96.55zM82.117 23.5h3.13v10.953h-3.13zM21.645 23.5h3.128v10.953h-3.128zm0 0" style="stroke:none;fill-rule:nonzero;fill:#17d059;fill-opacity:1"/></svg>