<svg xmlns="http://www.w3.org/2000/svg" width="131" height="35"><path d="M.34 14.719V.989H3.03v13.73Zm6.652-8.614c.805-.875 1.883-1.418 3.024-1.418 1.144-.066 2.148.473 2.82 1.418.875-.812 1.95-1.347 3.156-1.418 2.153 0 3.293 1.348 3.293 3.57v6.462h-2.55V8.73c0-1.144-.403-2.293-1.614-2.293-1.277 0-2.016.743-2.016 2.426v5.856h-2.554V8.73c0-1.347-.602-2.293-1.676-2.293-1.21 0-1.95.81-1.95 2.493v5.789h-2.55V4.89h2.48v1.214Zm18.676.2c1.477 0 2.148 1.683 2.148 3.363 0 1.687-.535 3.77-2.28 3.77-1.345 0-2.356-1.415-2.356-3.43 0-2.36.875-3.77 2.488-3.703M23.18 4.96h-2.551v14.672h2.55v-6.125c.673.875 1.747 1.41 2.825 1.48 2.687 0 4.433-2.758 4.433-5.32 0-2.152-1.207-4.91-4.23-4.91-1.21 0-2.355.605-3.027 1.613Zm10.953 3.7c0-1.348.605-2.493 2.082-2.493 1.277 0 1.746 1.012 1.68 2.492Zm6.113 1.347c.2-2.895-1.074-5.387-4.031-5.387-2.617-.066-4.77 1.953-4.836 4.578v.406c0 3.23 2.148 5.313 5.039 5.313a7 7 0 0 0 3.695-1.074l-.742-1.348c-.738.54-1.61.809-2.55.809-1.614-.067-2.821-1.414-2.755-3.032v-.199h6.18Zm3.762-3.367.539-.743c.336-.402.875-1.21 1.61-1.21.671.07 1.277.335 1.745.875l-.937 1.82a2.5 2.5 0 0 0-1.211-.34c-.871 0-1.746.742-1.746 2.828v4.848h-2.551V4.89h2.55zm7.258-1.68v9.824H48.71V4.891ZM48.44 1.93c0-.809.672-1.48 1.477-1.48.875-.067 1.617.605 1.68 1.48.07.875-.602 1.613-1.477 1.683-.875.067-1.613-.605-1.68-1.48zm9.672 7.132c.207 2.899-1.136 4.176-2.148 4.176-.738-.07-1.207-.742-1.14-1.48 0-1.145.605-1.887 1.882-2.223Zm0 4.243a2.84 2.84 0 0 0 .207 1.48h2.684a7 7 0 0 1-.402-2.422V8.324c0-3.094-2.149-3.636-3.895-3.636a5.5 5.5 0 0 0-3.629 1.347l.805 1.211c.672-.672 1.613-1.008 2.554-1.008.872 0 1.614.606 1.747 1.48l-2.22.673c-2.218.672-3.491 1.683-3.491 3.57-.133 1.547 1.007 2.894 2.554 2.957h.133a4.15 4.15 0 0 0 2.418-1.207Zm4.102 1.414V.316h2.55V14.72ZM81.43 3.48c-.875-.472-1.817-.742-2.758-.742-2.754 0-4.703 1.95-4.703 5.117 0 3.23 2.219 5.18 4.77 5.18.94 0 1.882-.2 2.69-.672l.735 1.68a7.2 7.2 0 0 1-3.559.945c-4.636 0-7.523-3.164-7.523-7.203 0-3.77 2.887-7 7.59-7 1.277 0 2.488.402 3.562 1.008ZM87.203 13.508c-1.812 0-2.281-2.09-2.281-3.77 0-1.683.535-3.57 2.281-3.57s2.352 1.953 2.352 3.57-.47 3.77-2.352 3.77m0 1.48c3.024 0 5.04-2.222 5.04-5.25a4.966 4.966 0 0 0-4.97-4.98 4.967 4.967 0 0 0-4.972 4.98c-.067 2.961 1.949 5.25 4.902 5.25m6.113-.27V.317h2.555V14.72Zm4.098 0V.317h2.555V14.72Zm6.316-6.058c0-1.348.606-2.492 2.082-2.492 1.278 0 1.747 1.012 1.68 2.492Zm6.18 1.414c.203-2.894-1.074-5.386-4.027-5.386-2.621-.067-4.77 1.953-4.84 4.578v.402c0 3.23 2.148 5.32 5.039 5.32 1.344 0 2.621-.402 3.762-1.078l-.739-1.348c-.742.473-1.613.81-2.55.81-1.614-.067-2.89-1.411-2.825-3.028v-.203Zm14.512-1.414c0-1.348.605-2.492 2.082-2.492 1.277 0 1.746 1.012 1.683 2.492Zm6.113 1.414c.203-2.894-1.074-5.386-4.031-5.386-2.621-.067-4.77 1.953-4.836 4.578v.402c0 3.23 2.152 5.32 5.035 5.32 1.348 0 2.621-.402 3.766-1.078l-.742-1.348c-.735.473-1.61.81-2.551.81-1.61 0-2.82-1.349-2.754-3.231Zm-14.781-3.77c1.547 0 2.285 1.614 2.285 3.301 0 1.95-.738 3.832-2.418 3.832-1.476 0-2.219-1.816-2.219-3.769 0-1.95.743-3.43 2.352-3.363m4.836-1.343h-2.55v1.207h-.067c-.672-.938-1.68-1.48-2.825-1.41-2.617 0-4.43 2.488-4.43 5.047 0 3.164 1.68 5.25 4.165 5.25 1.21 0 2.351-.606 3.09-1.617h.066v1.28c0 2.29-1.273 3.298-2.953 3.298-1.145.07-2.285-.27-3.293-.875l-.469 1.617a9 9 0 0 0 3.961.941c2.824 0 5.305-1.414 5.305-5.789ZM.34 20.574H3.03v11.844h5.707v1.82H.34Zm23.246 5.117c.937-.875 2.148-1.418 3.426-1.418 2.351 0 3.492 1.282 3.492 3.707v6.325h-2.55v-5.992c0-1.344-.606-2.29-2.017-2.29-1.21-.062-2.285.875-2.351 2.157v6.191000000000001H21.03v-9.828h2.555Zm13.504.133c1.61 0 2.418 1.617 2.418 3.297 0 1.953-.738 3.84-2.555 3.84-1.547 0-2.281-1.82-2.281-3.773 0-1.95.672-3.364 2.418-3.364m2.418 8.48h2.55V19.899h-2.55v5.723h-.067c-.742-.941-1.882-1.41-3.093-1.348-2.688 0-4.567 2.493-4.567 4.985 0 3.16 1.746 5.25 4.367 5.25 1.274 0 2.485-.61 3.293-1.684h.067Zm9.137-1.21c-1.883 0-2.418-2.086-2.418-3.836 0-1.617.601-3.567 2.418-3.567 1.812 0 2.417 1.95 2.417 3.567.067 1.75-.468 3.836-2.417 3.836m0 1.48c2.753.137 5.101-2.02 5.238-4.781v-.469c0-3.164-2.551-4.98-5.238-4.98s-5.243 1.816-5.243 4.98c-.136 2.762 2.02 5.113 4.77 5.25zm9.203-8.883c.937-.875 2.148-1.418 3.425-1.418 2.352 0 3.493 1.282 3.493 3.707v6.325h-2.551v-5.992c0-1.344-.606-2.29-2.016-2.29-1.21-.062-2.285.875-2.351 2.157v6.191000000000001h-2.555v-9.828h2.555Zm-43.465 7.403c-1.883 0-2.418-2.086-2.418-3.836 0-1.617.601-3.567 2.418-3.567 1.812 0 2.418 1.95 2.418 3.567 0 1.75-.469 3.836-2.418 3.836m0 1.48c2.754.137 5.101-2.02 5.238-4.781v-.469c0-3.164-2.555-4.98-5.238-4.98-2.688 0-5.238 1.816-5.238 4.98-.137 2.762 2.015 5.113 4.835 5.25zm0 0" style="stroke:none;fill-rule:nonzero;fill:#003e74;fill-opacity:1"/></svg>